<?xml version="1.0" encoding="UTF-8" standalone="no"?><!DOCTYPE svg PUBLIC "-//W3C//DTD SVG 1.1//EN" "http://www.w3.org/Graphics/SVG/1.1/DTD/svg11.dtd"><svg width="100%" height="100%" viewBox="0 0 473 473" version="1.1" xmlns="http://www.w3.org/2000/svg" xmlns:xlink="http://www.w3.org/1999/xlink" xml:space="preserve" xmlns:serif="http://www.serif.com/" style="fill-rule:evenodd;clip-rule:evenodd;stroke-linejoin:round;stroke-miterlimit:2;"><ellipse cx="236.22" cy="236.22" rx="206.693" ry="206.964" style="fill:#173753;"/><clipPath id="_clip1"><ellipse cx="236.22" cy="236.22" rx="206.693" ry="206.964"/></clipPath><g clip-path="url(#_clip1)"><g><circle cx="236.212" cy="552.522" r="222.351" style="fill:#285680;"/><g><path d="M236.212,330.17c-30.9,0 -60.311,6.31 -87.047,17.696c-1.219,7.277 -7.299,19.705 -7.115,23.669c0.858,0.169 56.531,-56.738 49.622,-18.324c-4.454,24.727 -49.96,24.581 -48.005,49.477c47.814,18.746 64.49,-35.592 105.104,-35.37c13.548,0.077 48.242,-21.345 54.859,-16.983c26.805,17.658 -6.126,80.254 -26.636,59.422c-19.72,-19.72 -47.859,6.908 -46.594,37.662c10.251,0.46 14.629,-29.106 23.845,-19.245c10.152,10.864 6.487,32.739 -7.56,37.761c-14.138,5.053 -69.596,-37.493 -55.971,-5.244c14.982,35.791 -44.884,63.446 15.549,49.017c28.492,-6.832 19.023,14.851 32.463,25.194c16.01,12.291 8.925,-16.975 20.595,-12.52c16.983,6.571 -2.921,23.5 23.676,11.209c31.199,-14.23 19.475,7.959 29.029,22.465c17.911,27.081 61.928,53.073 84.999,17.282c5.436,-8.441 1.948,-75.193 36.19,-30.416c21.744,28.446 14.284,-33.605 17.228,-49.906c-26.022,-93.894 -112.049,-162.846 -214.231,-162.846Z" style="fill:#24ae5f;fill-rule:nonzero;"/></g><path d="M16.735,588.152c1.058,-0.092 1.196,-0.184 1.288,-0.276c9.945,-9.937 18.226,-11.601 26.514,-26.514c8.288,-14.913 -1.656,-14.913 -0,-39.77c1.656,-24.857 -1.656,-13.257 -0,-39.77c0.598,-9.538 -0.406,-14.783 -11.999,-18.532c-11.984,27.326 -18.678,57.489 -18.678,89.232c0,12.129 1.005,24.021 2.875,35.63Z" style="fill:#88c057;fill-rule:nonzero;"/><path d="M319.977,346.678c-1.488,28.062 -2.584,48.342 -2.584,48.342l-42.845,42.845c0,0 40.161,57.566 42.845,64.26c2.676,6.693 36.143,14.729 42.845,10.711c6.693,-4.018 32.133,-25.44 42.845,-10.711c7.452,10.251 6.494,19.199 11.079,25.493c3.159,0.046 7.107,2.17 12.03,7.131c6.962,2.085 14.897,4.133 21.967,5.842c2.346,-13.724 0.605,-38.206 2.292,-47.575c-18.478,-66.629 -67.242,-120.553 -130.474,-146.338Z" style="fill:#88c057;fill-rule:nonzero;"/><path d="M346.084,359.352c-1.396,26.483 -2.53,47.491 -2.53,47.491l-30.669,30.669c-0,0 28.752,41.212 30.669,46.004c1.917,4.792 25.877,10.543 30.669,7.667c4.792,-2.875 23.002,-18.209 30.669,-7.667c7.667,10.543 2.875,19.168 15.335,23.002c10.527,3.243 25.049,6.456 29.327,7.376c0.061,-8.526 0.084,-16.416 0.889,-20.878c-15.833,-57.137 -53.962,-104.919 -104.359,-133.664Z" style="fill:#fac176;fill-rule:nonzero;"/></g></g><path d="M236.22,0c130.374,0 236.221,105.847 236.221,236.22c-0,130.374 -105.847,236.221 -236.221,236.221c-130.373,-0 -236.22,-105.847 -236.22,-236.221c-0,-130.373 105.847,-236.22 236.22,-236.22Zm0,41.082c-107.699,-0 -195.138,87.439 -195.138,195.138c-0,107.7 87.439,195.139 195.138,195.139c107.7,0 195.139,-87.439 195.139,-195.139c0,-107.699 -87.439,-195.138 -195.139,-195.138Z"/><g transform="matrix(1,0,0,1,-29.7843,-29.7843)"><g transform="matrix(0.780628,-0.624996,0.624996,0.780628,-44.1468,104.831)"><text x="127.26px" y="115.303px" style="font-family:'Helvetica-Bold', 'Helvetica';font-weight:700;font-size:37.5px;fill:#fff;">D</text></g><g transform="matrix(0.848783,-0.528741,0.528741,0.848783,-29.153,93.7836)"><text x="149.384px" y="97.86px" style="font-family:'Helvetica-Bold', 'Helvetica';font-weight:700;font-size:37.5px;fill:#fff;">e</text></g><g transform="matrix(0.888546,-0.458788,0.458788,0.888546,-21.0443,86.6652)"><text x="167.851px" y="86.646px" style="font-family:'Helvetica-Bold', 'Helvetica';font-weight:700;font-size:37.5px;fill:#fff;">l</text></g><g transform="matrix(0.911721,-0.41081,0.41081,0.911721,-17.8852,80.1297)"><text x="177.501px" y="81.68px" style="font-family:'Helvetica-Bold', 'Helvetica';font-weight:700;font-size:37.5px;fill:#fff;">i</text></g><g transform="matrix(0.941956,-0.335736,0.335736,0.941956,-14.9319,67.4628)"><text x="187.643px" y="76.916px" style="font-family:'Helvetica-Bold', 'Helvetica';font-weight:700;font-size:37.5px;fill:#fff;">v</text></g><g transform="matrix(0.972536,-0.232752,0.232752,0.972536,-10.484,50.3932)"><text x="208.295px" y="69.622px" style="font-family:'Helvetica-Bold', 'Helvetica';font-weight:700;font-size:37.5px;fill:#fff;">e</text></g><g transform="matrix(0.990409,-0.138169,0.138169,0.990409,-6.7408,32.3263)"><text x="229.469px" y="64.716px" style="font-family:'Helvetica-Bold', 'Helvetica';font-weight:700;font-size:37.5px;fill:#fff;">r</text></g><g transform="matrix(0.99935,-0.0360558,0.0360558,0.99935,-2.08516,8.86858)"><text x="244.846px" y="62.247px" style="font-family:'Helvetica-Bold', 'Helvetica';font-weight:700;font-size:37.5px;fill:#fff;">C</text></g><g transform="matrix(0.995999,0.0893666,-0.0893666,0.995999,6.58194,-24.1603)"><text x="273.1px" y="61.423px" style="font-family:'Helvetica-Bold', 'Helvetica';font-weight:700;font-size:37.5px;fill:#fff;">o</text></g><g transform="matrix(0.978541,0.206054,-0.206054,0.978541,19.485,-59.8335)"><text x="297.005px" y="63.631px" style="font-family:'Helvetica-Bold', 'Helvetica';font-weight:700;font-size:37.5px;fill:#fff;">n</text></g><g transform="matrix(0.931035,0.36493,-0.36493,0.931035,49.0584,-115.809)"><text x="330.931px" y="71.892px" style="font-family:'Helvetica-Bold', 'Helvetica';font-weight:700;font-size:37.5px;fill:#fff;">2</text></g><g transform="matrix(0.886448,0.462828,-0.462828,0.886448,76.8783,-153.491)"><text x="351.248px" y="79.929px" style="font-family:'Helvetica-Bold', 'Helvetica';font-weight:700;font-size:37.5px;fill:#fff;">0</text></g><g transform="matrix(0.832295,0.554333,-0.554333,0.832295,112.085,-190.307)"><text x="370.564px" y="90.09px" style="font-family:'Helvetica-Bold', 'Helvetica';font-weight:700;font-size:37.5px;fill:#fff;">2</text></g><g transform="matrix(0.769074,0.63916,-0.63916,0.769074,155.119,-224.826)"><text x="388.697px" y="102.257px" style="font-family:'Helvetica-Bold', 'Helvetica';font-weight:700;font-size:37.5px;fill:#fff;">5</text></g></g><g transform="matrix(1,0,0,1,-29.7843,-59.0551)"><g transform="matrix(0.642595,0.766206,-0.766206,0.642595,360.471,89.8449)"><text x="83.931px" y="431.312px" style="font-family:'Helvetica-Bold', 'Helvetica';font-weight:700;font-size:37.5px;fill:#fff;">Y</text></g><g transform="matrix(0.72066,0.693289,-0.693289,0.72066,340.686,56.2939)"><text x="100.485px" y="450.917px" style="font-family:'Helvetica-Bold', 'Helvetica';font-weight:700;font-size:37.5px;fill:#fff;">o</text></g><g transform="matrix(0.786427,0.617683,-0.617683,0.786427,315.092,26.2859)"><text x="119.535px" y="468.788px" style="font-family:'Helvetica-Bold', 'Helvetica';font-weight:700;font-size:37.5px;fill:#fff;">r</text></g><g transform="matrix(0.839714,0.543029,-0.543029,0.839714,281.847,4.52748)"><text x="133.254px" y="479.694px" style="font-family:'Helvetica-Bold', 'Helvetica';font-weight:700;font-size:37.5px;fill:#fff;">k</text></g><g transform="matrix(0.904048,0.427431,-0.427431,0.904048,228.54,-22.167)"><text x="163.643px" y="497.947px" style="font-family:'Helvetica-Bold', 'Helvetica';font-weight:700;font-size:37.5px;fill:#fff;">-</text></g><g transform="matrix(0.954802,0.297242,-0.297242,0.954802,159.816,-33.0995)"><text x="188.747px" y="508.963px" style="font-family:'Helvetica-Bold', 'Helvetica';font-weight:700;font-size:37.5px;fill:#fff;">2</text></g><g transform="matrix(0.979261,0.202604,-0.202604,0.979261,108.898,-32.1851)"><text x="211.659px" y="515.826px" style="font-family:'Helvetica-Bold', 'Helvetica';font-weight:700;font-size:37.5px;fill:#fff;">1</text></g><g transform="matrix(0.996242,0.0866107,-0.0866107,0.996242,45.9653,-18.4738)"><text x="235.879px" y="520.478px" style="font-family:'Helvetica-Bold', 'Helvetica';font-weight:700;font-size:37.5px;fill:#fff;">s</text></g><g transform="matrix(0.999995,0.00317132,-0.00317132,0.999995,1.6574,-0.819681)"><text x="259.295px" y="522.211px" style="font-family:'Helvetica-Bold', 'Helvetica';font-weight:700;font-size:37.5px;fill:#fff;">t</text></g><g transform="matrix(0.986647,-0.162872,0.162872,0.986647,-81.1423,53.8016)"><text x="287.554px" y="521.771px" style="font-family:'Helvetica-Bold', 'Helvetica';font-weight:700;font-size:37.5px;fill:#fff;">M</text></g><g transform="matrix(0.956174,-0.292799,0.292799,0.956174,-136.768,117.012)"><text x="322.491px" y="515.376px" style="font-family:'Helvetica-Bold', 'Helvetica';font-weight:700;font-size:37.5px;fill:#fff;">a</text></g><g transform="matrix(0.919406,-0.393311,0.393311,0.919406,-171.976,176.9)"><text x="345.659px" y="508.082px" style="font-family:'Helvetica-Bold', 'Helvetica';font-weight:700;font-size:37.5px;fill:#fff;">y</text></g><g transform="matrix(0.84478,-0.535113,0.535113,0.84478,-204.843,279.045)"><text x="378.576px" y="492.616px" style="font-family:'Helvetica-Bold', 'Helvetica';font-weight:700;font-size:37.5px;fill:#fff;">2</text></g><g transform="matrix(0.782956,-0.622077,0.622077,0.782956,-211.676,352.252)"><text x="398.962px" y="479.471px" style="font-family:'Helvetica-Bold', 'Helvetica';font-weight:700;font-size:37.5px;fill:#fff;">0</text></g><g transform="matrix(0.712873,-0.701293,0.701293,0.712873,-205.606,426.308)"><text x="417.815px" y="464.245px" style="font-family:'Helvetica-Bold', 'Helvetica';font-weight:700;font-size:37.5px;fill:#fff;">2</text></g><g transform="matrix(0.634848,-0.772637,0.772637,0.634848,-186.61,499.326)"><text x="434.965px" y="447.09px" style="font-family:'Helvetica-Bold', 'Helvetica';font-weight:700;font-size:37.5px;fill:#fff;">5</text></g></g><g><path d="M235.34,176.731c-0.831,0.134 -1.493,0.165 -1.9,0.127c-0.172,-0.013 -0.282,-0.04 -0.341,-0.058c-0.356,-0.412 -0.685,-0.82 -0.98,-1.222c-1.453,-1.985 -2.202,-3.824 -2.503,-5.559c3.694,2.03 7.802,4.247 10.217,5.546c-1.785,0.592 -3.314,0.979 -4.493,1.166Z" style="fill:#ffd7ae;"/><path d="M285.674,138.192l-0.013,0.184c-0.042,0.285 -0.189,0.775 -0.459,1.381c-0.502,1.143 -1.425,2.689 -2.723,4.489c-0.515,-2.689 -1.397,-7.261 -2.228,-11.387c0.094,0.047 0.188,0.083 0.28,0.134c1.466,0.809 2.906,2.04 4.275,3.904c0.293,0.4 0.583,0.835 0.868,1.295Z" style="fill:#ffd7ae;"/><path d="M255.024,151.554l-16.265,-0.729c0.146,-0.346 0.273,-0.7 0.36,-1.073c0.15,-0.659 0.175,-1.376 0.013,-2.086c-0.161,-0.709 -0.495,-1.394 -0.974,-2.044l-1.798,-2.449c0.829,-0.191 1.523,-0.396 1.995,-0.586c2.818,-1.132 7.594,0.113 9.266,-1.114c1.675,-1.231 1.917,-6.16 3.839,-8.508c0.323,-0.393 0.726,-0.994 1.157,-1.728l1.798,2.448c0.463,0.633 0.98,1.151 1.584,1.526c0.908,0.572 1.961,0.725 2.94,0.638c0.087,-0.008 0.176,-0.032 0.263,-0.043l-4.178,15.748Z" style="fill:#ffd7ae;"/><path d="M238.759,150.825c0.146,-0.346 0.273,-0.7 0.36,-1.073c0.15,-0.659 0.175,-1.376 0.013,-2.086c-0.161,-0.709 -0.495,-1.394 -0.974,-2.044l-1.798,-2.449l-3.031,0.521l2.611,3.556c0.302,0.413 0.442,0.74 0.506,1.024c0.091,0.418 0.05,0.812 -0.184,1.406c-0.122,0.307 -0.305,0.655 -0.533,1.036l3.03,0.109Z"/><path d="M283.12,147.957c1.97,-2.474 3.399,-4.646 4.283,-6.418c0.441,-0.89 0.75,-1.675 0.913,-2.407c0.081,-0.369 0.126,-0.726 0.111,-1.1c-0.018,-0.371 -0.098,-0.779 -0.338,-1.175c-0.346,-0.565 -0.701,-1.092 -1.065,-1.589c-2.092,-2.858 -4.516,-4.621 -7.028,-5.533c-0.135,-0.049 -0.271,-0.078 -0.406,-0.123l0.661,3.247c0.094,0.047 0.188,0.083 0.28,0.134c1.466,0.809 2.906,2.04 4.275,3.904c0.293,0.4 0.583,0.835 0.868,1.295l-0.013,0.184c-0.042,0.285 -0.189,0.775 -0.459,1.381c-0.502,1.143 -1.425,2.689 -2.723,4.489l0.641,3.711Z"/><path d="M279.59,129.612c-0.59,-2.839 -1.078,-5.032 -1.272,-5.507c-0.648,-1.58 -14.728,5.682 -18.284,8.763l-0.832,2.938l-4.178,15.748l-16.265,-0.729l-3.03,-0.109c-3.979,2.431 -15.19,13.75 -13.87,14.844c0.393,0.327 2.334,1.447 4.859,2.855l2.898,1.604c3.694,2.03 7.802,4.247 10.217,5.546l3.389,1.701c5.894,-2.283 13.536,-6.276 21.683,-12.255c8.163,-5.994 14.275,-12.112 18.215,-17.054l-0.641,-3.711c-0.515,-2.689 -1.397,-7.261 -2.228,-11.387l-0.661,-3.247Z" style="fill:#508372;"/><path d="M226.718,168.415c0.013,0.805 0.08,1.621 0.25,2.457c0.421,2.062 1.357,4.192 2.932,6.335c0.365,0.497 0.764,0.995 1.2,1.493c0.305,0.349 0.67,0.548 1.02,0.676c0.658,0.231 1.333,0.269 2.121,0.238c1.37,-0.067 3.086,-0.409 5.153,-1.024c1.17,-0.351 2.451,-0.79 3.828,-1.324l-3.389,-1.701c-1.785,0.592 -3.314,0.979 -4.493,1.166c-0.831,0.134 -1.493,0.165 -1.9,0.127c-0.172,-0.013 -0.282,-0.04 -0.341,-0.058c-0.356,-0.412 -0.685,-0.82 -0.98,-1.222c-1.453,-1.985 -2.202,-3.824 -2.503,-5.559l-2.898,-1.604Z"/><path d="M260.034,132.868c-0.812,0.193 -1.44,0.286 -1.847,0.24c-0.305,-0.03 -0.507,-0.096 -0.739,-0.236c-0.229,-0.141 -0.498,-0.384 -0.816,-0.815l-2.61,-3.555l-1.405,2.735l1.798,2.448c0.463,0.633 0.98,1.151 1.584,1.526c0.908,0.572 1.961,0.725 2.94,0.638c0.087,-0.008 0.176,-0.032 0.263,-0.043l0.832,-2.938Z"/><path d="M254.022,128.502c1.746,-3.861 3.233,-9.175 1.72,-13.092c-1.414,-3.66 -3.693,-5.771 -6.175,-7.56c-0.031,-0.086 -0.055,-0.162 -0.088,-0.25c-0.386,-1.04 -0.821,-1.869 -1.309,-2.534c-0.561,-0.766 -1.207,-1.315 -1.893,-1.643c-1.029,-0.496 -2.06,-0.437 -2.781,-0.227l-31.162,22.881c-0.135,0.21 -0.265,0.448 -0.377,0.719c-0.222,0.552 -0.345,1.248 -0.236,2c0.106,0.752 0.437,1.534 1,2.299c0.489,0.664 1.15,1.327 2.026,2.006c0.074,0.057 0.142,0.107 0.216,0.164c0.963,2.901 2.295,5.707 5.362,8.149c3.285,2.616 8.798,2.788 13.004,2.28l3.031,-0.521c0.829,-0.191 1.523,-0.396 1.995,-0.586c2.818,-1.132 7.594,0.113 9.266,-1.114c1.675,-1.231 1.917,-6.16 3.839,-8.508c0.323,-0.393 0.726,-0.994 1.157,-1.728l1.405,-2.735Zm-31.08,4.204c-3.948,-1.377 -5.332,-5.859 -6.358,-9.244l-0.097,-0.32l22.969,-16.865l0.276,0.189c2.923,1.992 6.784,4.654 6.916,8.834c0.135,4.352 -7.168,4.56 -12.077,8.4c-5.13,3.531 -7.515,10.436 -11.629,9.006Z" style="fill:#e17d17;"/><path d="M222.942,132.706c-3.948,-1.377 -5.332,-5.859 -6.358,-9.244l-0.339,-0.737l22.954,-16.646l0.533,0.387c2.923,1.992 6.784,4.654 6.916,8.834c0.135,4.352 -7.168,4.56 -12.077,8.4c-5.13,3.531 -7.515,10.436 -11.629,9.006Z" style="fill:#ffd7ae;"/><path d="M237.106,95.758l-29.96,21.999c-0.761,0.564 -1.232,1.393 -1.36,2.262c-0.138,0.873 0.063,1.808 0.626,2.574l1.741,2.371c0.565,0.77 1.394,1.239 2.271,1.372c0.632,0.098 1.3,0.01 1.91,-0.259l31.162,-22.881c0.444,-0.505 0.73,-1.114 0.826,-1.75c0.136,-0.876 -0.063,-1.808 -0.633,-2.575l-1.74,-2.371c-0.559,-0.769 -1.391,-1.241 -2.265,-1.371c-0.874,-0.137 -1.808,0.064 -2.578,0.629Zm-25.23,28.424l-0.282,0.165c-0.279,0.127 -0.587,0.167 -0.887,0.121c-0.4,-0.063 -0.768,-0.27 -1.03,-0.623l-1.741,-2.371c-0.257,-0.354 -0.346,-0.769 -0.286,-1.169c0.053,-0.334 0.207,-0.647 0.46,-0.889l0.127,-0.112l0.009,0.012l29.98,-22.034c0.353,-0.257 0.773,-0.349 1.171,-0.287c0.402,0.061 0.771,0.271 1.03,0.623l1.74,2.371c0.261,0.354 0.349,0.767 0.286,1.169c-0.05,0.332 -0.205,0.653 -0.467,0.899l-0.157,0.133l-29.953,21.992Z" style="fill:#c7c7c7;stroke:#c7c7c7;stroke-width:1px;"/><path d="M211.876,124.182l-0.282,0.165c-0.279,0.127 -0.587,0.167 -0.887,0.121c-0.4,-0.063 -0.768,-0.27 -1.03,-0.623l-1.741,-2.371c-0.257,-0.354 -0.346,-0.769 -0.286,-1.169c0.053,-0.334 0.207,-0.647 0.46,-0.889l0.127,-0.112l0.009,0.012l29.98,-22.034c0.353,-0.257 0.773,-0.349 1.171,-0.287c0.402,0.061 0.771,0.271 1.03,0.623l1.74,2.371c0.261,0.354 0.349,0.767 0.286,1.169c-0.05,0.332 -0.205,0.653 -0.467,0.899l-0.157,0.133l-29.953,21.992Z" style="fill:#c7c7c7;"/><g><path d="M202.469,113.855c-2.5,0.113 -5.372,-0.167 -7.224,-1.278c-1.368,-0.807 -2.335,-1.682 -3.001,-2.589c-0.727,-0.994 -1.107,-2.026 -1.24,-3.134c-0.131,-1.107 -0.001,-2.293 0.35,-3.527c0.581,-2.048 0.825,-3.82 0.78,-5.358c-0.018,-0.628 -0.097,-1.208 -0.213,-1.759c0.312,0.316 0.635,0.673 0.949,1.102c1.057,1.442 2.004,3.485 2.104,6.13c0.036,0.989 0.276,1.852 0.776,2.532c0.588,0.814 1.505,1.239 2.396,1.349c1.35,0.169 2.76,-0.184 4.18,-0.715c0.756,-0.288 1.505,-0.638 2.232,-1.016c0.05,2.663 0.376,5.377 1.116,7.952c-0.884,0.133 -1.998,0.263 -3.205,0.311Z" style="fill:#fff;"/><path d="M228.783,86.603c0.514,-0.822 0.913,-1.666 1.071,-2.561c0.162,-0.883 0.033,-1.885 -0.567,-2.69c-0.501,-0.68 -1.253,-1.169 -2.188,-1.499c-2.492,-0.887 -4.156,-2.402 -5.215,-3.841c-0.317,-0.431 -0.572,-0.853 -0.78,-1.246c0.494,0.278 1.028,0.53 1.626,0.738c1.455,0.503 3.219,0.801 5.346,0.86c1.283,0.034 2.454,0.265 3.471,0.722c1.017,0.458 1.889,1.13 2.619,2.121c0.666,0.907 1.211,2.092 1.571,3.638c0.263,1.121 0.231,2.445 -0,3.797c-0.342,2.027 -1.124,4.098 -1.822,5.641c-0.133,0.293 -0.256,0.546 -0.378,0.797c-2.238,-1.475 -4.73,-2.599 -7.256,-3.443c0.937,-0.942 1.829,-1.969 2.502,-3.034Z" style="fill:#fff;"/><path d="M219.647,103.371c0.794,-0.583 1.911,-0.411 2.494,0.383c0.583,0.794 0.412,1.911 -0.381,2.494c-0.796,0.584 -1.913,0.413 -2.496,-0.382c-0.583,-0.793 -0.412,-1.911 0.383,-2.495Z" style="fill:#c7c7c7;"/><path d="M215.671,97.956c0.794,-0.583 1.91,-0.412 2.493,0.382c0.585,0.796 0.412,1.911 -0.381,2.494c-0.796,0.584 -1.911,0.415 -2.496,-0.382c-0.582,-0.793 -0.411,-1.91 0.384,-2.494Z" style="fill:#c7c7c7;"/><path d="M211.074,91.695c0.794,-0.583 1.91,-0.412 2.493,0.382c0.584,0.795 0.412,1.911 -0.381,2.494c-0.796,0.584 -1.912,0.413 -2.496,-0.382c-0.582,-0.793 -0.411,-1.91 0.384,-2.494Z" style="fill:#c7c7c7;"/><path d="M236.982,95.849c-0.505,-0.502 -1.043,-0.97 -1.599,-1.42c0.399,-0.795 0.883,-1.838 1.342,-3.043c0.501,-1.32 0.968,-2.818 1.231,-4.366c0.262,-1.549 0.327,-3.153 -0.027,-4.685c-0.415,-1.787 -1.074,-3.269 -1.949,-4.46c-0.953,-1.303 -2.167,-2.244 -3.513,-2.844c-1.347,-0.603 -2.816,-0.877 -4.329,-0.919c-1.953,-0.053 -3.493,-0.326 -4.67,-0.736c-1.179,-0.408 -1.987,-0.944 -2.532,-1.525c-0.18,-0.187 -0.323,-0.343 -0.577,-0.516c-0.131,-0.083 -0.301,-0.184 -0.584,-0.229c-0.277,-0.055 -0.685,0.033 -0.933,0.23c-0.363,0.287 -0.44,0.554 -0.512,0.741c-0.064,0.197 -0.095,0.368 -0.125,0.559l1.113,0.171l-1.113,-0.17c-0.049,0.371 -0.005,0.644 0.058,0.976c0.206,0.963 0.762,2.299 1.806,3.731c1.276,1.741 3.307,3.576 6.277,4.63c0.649,0.232 0.97,0.497 1.126,0.71c0.175,0.25 0.236,0.499 0.164,0.974c-0.109,0.698 -0.664,1.736 -1.483,2.765c-0.673,0.854 -1.508,1.71 -2.347,2.477c-6.873,-1.799 -13.425,-1.588 -15.064,-0.385c-1.64,1.205 -3.804,7.391 -4.146,14.484c-1.379,0.804 -2.934,1.545 -4.259,1.891c-0.756,0.202 -1.428,0.266 -1.893,0.202c-0.474,-0.074 -0.694,-0.208 -0.88,-0.45c-0.158,-0.213 -0.315,-0.598 -0.341,-1.285c-0.116,-3.15 -1.26,-5.639 -2.539,-7.378c-0.696,-0.948 -1.432,-1.68 -2.089,-2.204c-0.329,-0.261 -0.638,-0.471 -0.928,-0.634c-0.3,-0.16 -0.547,-0.284 -0.917,-0.348l-0.001,0.001c-0.189,-0.029 -0.36,-0.051 -0.565,-0.049c-0.202,0.011 -0.478,0.004 -0.863,0.267c-0.262,0.177 -0.467,0.542 -0.499,0.822c-0.052,0.427 0.05,0.641 0.114,0.827c0.074,0.183 0.157,0.335 0.251,0.502c0.391,0.694 0.66,1.625 0.697,2.873c0.037,1.245 -0.163,2.797 -0.697,4.675c-0.413,1.456 -0.591,2.941 -0.42,4.406c0.17,1.464 0.704,2.903 1.662,4.204c0.875,1.191 2.091,2.263 3.672,3.195c1.355,0.797 2.906,1.214 4.462,1.428c2.97,0.398 6.009,0.063 7.844,-0.234c0.261,0.664 0.548,1.316 0.875,1.947l29.7,-21.808Zm-25.908,-4.154c0.794,-0.583 1.91,-0.412 2.493,0.382c0.584,0.795 0.412,1.911 -0.381,2.494c-0.796,0.584 -1.912,0.413 -2.496,-0.382c-0.582,-0.793 -0.411,-1.91 0.384,-2.494Zm17.709,-5.092c0.514,-0.822 0.913,-1.666 1.071,-2.561c0.162,-0.883 0.033,-1.885 -0.567,-2.69c-0.501,-0.68 -1.253,-1.169 -2.188,-1.499c-2.492,-0.887 -4.156,-2.402 -5.215,-3.841c-0.317,-0.431 -0.572,-0.853 -0.78,-1.246c0.494,0.278 1.028,0.53 1.626,0.738c1.455,0.503 3.219,0.801 5.346,0.86c1.283,0.034 2.454,0.265 3.471,0.722c1.017,0.458 1.889,1.13 2.619,2.121c0.666,0.907 1.211,2.092 1.571,3.638c0.263,1.121 0.231,2.445 -0,3.797c-0.342,2.027 -1.124,4.098 -1.822,5.641c-0.133,0.293 -0.256,0.546 -0.378,0.797c-2.238,-1.475 -4.73,-2.599 -7.256,-3.443c0.937,-0.942 1.829,-1.969 2.502,-3.034Zm-38.257,7.658l0.002,-0l-0.001,0.001l-0.001,-0.001Zm11.943,19.594c-2.5,0.113 -5.372,-0.167 -7.224,-1.278c-1.368,-0.807 -2.335,-1.682 -3.001,-2.589c-0.727,-0.994 -1.107,-2.026 -1.24,-3.134c-0.131,-1.107 -0.001,-2.293 0.35,-3.527c0.581,-2.048 0.825,-3.82 0.78,-5.358c-0.018,-0.628 -0.097,-1.208 -0.213,-1.759c0.312,0.316 0.635,0.673 0.949,1.102c1.057,1.442 2.004,3.485 2.104,6.13c0.036,0.989 0.276,1.852 0.776,2.532c0.588,0.814 1.505,1.239 2.396,1.349c1.35,0.169 2.76,-0.184 4.18,-0.715c0.756,-0.288 1.505,-0.638 2.232,-1.016c0.05,2.663 0.376,5.377 1.116,7.952c-0.884,0.133 -1.998,0.263 -3.205,0.311Zm13.202,-15.899c0.794,-0.583 1.91,-0.412 2.493,0.382c0.585,0.796 0.412,1.911 -0.381,2.494c-0.796,0.584 -1.911,0.415 -2.496,-0.382c-0.582,-0.793 -0.411,-1.91 0.384,-2.494Zm3.976,5.415c0.794,-0.583 1.911,-0.411 2.494,0.383c0.583,0.794 0.412,1.911 -0.381,2.494c-0.796,0.584 -1.913,0.413 -2.496,-0.382c-0.583,-0.793 -0.412,-1.911 0.383,-2.495Z"/></g></g><g id="Layer1"><g><path d="M150.591,306.454c16.873,-16.873 18.56,-21.091 29.106,-10.546c10.545,10.546 6.327,11.811 -10.546,29.106c-12.654,12.654 -28.684,10.124 -28.684,10.124c0,-0 -2.531,-16.03 10.124,-28.684" style="fill:#ff9d27;fill-rule:nonzero;"/><path d="M182.65,323.748c6.749,-17.716 8.858,-19.825 -0.844,-25.309c-9.702,-5.484 -9.702,-1.687 -16.029,16.029c-5.062,13.077 0.843,24.888 0.843,24.888c0,-0 11.389,-2.109 16.03,-15.608" style="fill:#ff9d27;fill-rule:nonzero;"/></g><path d="M172.948,307.297c3.796,-9.702 3.796,-11.811 8.858,-8.858c5.484,2.953 4.218,4.218 0.422,13.92c-2.531,7.171 -8.859,8.858 -8.859,8.858c0,0 -2.952,-6.327 -0.421,-13.92" style="fill:#fdf516;fill-rule:nonzero;"/><path d="M176.744,293.799c-5.484,-9.702 -7.593,-7.593 -25.309,-0.844c-13.077,5.062 -15.608,16.03 -15.608,16.03c0,-0 11.811,5.905 24.888,0.843c17.716,-6.749 21.513,-6.749 16.029,-16.029" style="fill:#ff9d27;fill-rule:nonzero;"/><g><path d="M167.886,302.657c9.702,-3.796 11.811,-3.796 8.858,-8.858c-2.953,-5.484 -4.218,-4.218 -13.92,-0.422c-7.171,2.531 -8.858,8.858 -8.858,8.858c-0,0 6.749,2.953 13.92,0.422" style="fill:#fdf516;fill-rule:nonzero;"/><path d="M163.246,301.814c9.28,-9.28 10.123,-11.811 16.029,-5.906c5.905,5.906 3.375,6.749 -5.906,16.029c-7.171,7.171 -16.029,5.484 -16.029,5.484c0,0 -0.843,-8.436 5.906,-15.607" style="fill:#fdf516;fill-rule:nonzero;"/></g><path d="M182.65,261.319c-26.153,-43.87 -69.601,-25.731 -69.601,-25.731c0,-0 62.008,-62.008 103.768,-20.248l-34.167,45.979Z" style="fill:#3baacf;fill-rule:nonzero;"/><path d="M202.897,228.839l13.498,-13.499c-41.338,-41.76 -103.346,20.248 -103.346,20.248c0,-0 54.415,-38.808 89.848,-6.749" style="fill:#428bc1;fill-rule:nonzero;"/><path d="M214.286,292.955c43.87,26.153 25.731,69.601 25.731,69.601c0,-0 62.008,-62.008 20.248,-103.768l-45.979,34.167Z" style="fill:#3baacf;fill-rule:nonzero;"/><path d="M246.766,272.708l13.499,-13.498c41.76,41.76 -20.248,103.768 -20.248,103.768c0,-0 38.808,-54.837 6.749,-90.27" style="fill:#428bc1;fill-rule:nonzero;"/><path d="M310.461,231.37c-49.353,48.931 -103.768,75.506 -122.75,56.524c-18.982,-18.982 7.593,-73.397 56.524,-122.75c57.368,-57.368 121.063,-54.837 121.063,-54.837c0,-0 2.109,63.695 -54.837,121.063" style="fill:#c5d0d8;fill-rule:nonzero;"/><path d="M297.807,217.449c-48.932,48.932 -97.863,80.99 -109.252,69.601c-11.389,-11.389 20.669,-60.321 69.601,-109.252c57.367,-57.367 107.986,-68.335 107.986,-68.335c-0,0 -10.968,50.619 -68.335,107.986Z" style="fill:#dae3ea;fill-rule:nonzero;"/><path d="M207.115,301.392c-2.109,2.109 -5.484,2.109 -7.593,-0l-25.309,-25.309c-2.109,-2.11 -2.109,-5.906 0,-8.015l7.593,-7.593l32.902,32.902l-7.593,8.015" style="fill:#c94747;fill-rule:nonzero;"/><path d="M199.944,293.799c-2.109,2.109 -4.64,2.953 -5.905,1.687l-14.342,-14.342c-1.266,-1.265 -0.422,-3.796 1.687,-5.905l7.593,-7.593l18.56,18.56l-7.593,7.593" style="fill:#f15744;fill-rule:nonzero;"/><path d="M192.773,304.345c-1.265,1.265 -4.218,1.265 -5.483,-0l-16.451,-16.451c-1.266,-1.266 -0.844,-3.797 0.421,-5.062l5.062,-5.062l21.513,21.513l-5.062,5.062" style="fill:#3e4347;fill-rule:nonzero;"/><path d="M189.399,300.97c-1.266,1.265 -3.797,1.687 -4.64,0.844l-11.39,-11.39c-0.843,-0.843 -0.421,-2.952 1.266,-4.218l5.062,-5.062l14.764,14.764l-5.062,5.062" style="fill:#62727a;fill-rule:nonzero;"/><path d="M365.298,110.307c0,-0 -22.778,-0.844 -53.571,10.967l42.604,42.604c11.811,-30.793 10.967,-53.571 10.967,-53.571" style="fill:#c94747;fill-rule:nonzero;"/><path d="M365.298,110.307c0,-0 -18.138,3.796 -45.557,19.404l26.153,26.153c15.608,-27.419 19.404,-45.557 19.404,-45.557" style="fill:#f15744;fill-rule:nonzero;"/><circle cx="288.105" cy="187.5" r="21.091" style="fill:#edf4f9;"/><circle cx="288.105" cy="187.5" r="13.92" style="fill:#3baacf;"/><circle cx="245.923" cy="229.682" r="21.091" style="fill:#edf4f9;"/><circle cx="245.923" cy="229.682" r="13.92" style="fill:#3baacf;"/><g><path d="M310.883,130.132c-1.265,1.266 -3.796,1.266 -5.062,0c-1.265,-1.265 -1.265,-3.796 0,-5.061c1.266,-1.266 3.797,-1.266 5.062,-0c1.266,1.265 1.266,3.796 0,5.061" style="fill:#fff;fill-rule:nonzero;"/><circle cx="318.054" cy="137.303" r="3.375" style="fill:#fff;"/><circle cx="328.178" cy="147.427" r="3.375" style="fill:#fff;"/><circle cx="337.88" cy="157.551" r="3.375" style="fill:#fff;"/><circle cx="348.003" cy="167.253" r="3.375" style="fill:#fff;"/><path d="M153.065,67.279c0.047,-0.305 0.247,-0.523 0.478,-0.523c0.232,-0 0.431,0.218 0.479,0.523l1.906,12.183l9.038,2.57c0.226,0.064 0.388,0.333 0.388,0.645c0,0.312 -0.162,0.581 -0.388,0.645l-9.038,2.57l-1.906,12.183c-0.048,0.305 -0.247,0.523 -0.479,0.523c-0.231,0 -0.431,-0.218 -0.478,-0.523l-1.907,-12.183l-9.037,-2.57c-0.227,-0.064 -0.389,-0.333 -0.389,-0.645c0,-0.312 0.162,-0.581 0.389,-0.645l9.037,-2.57l1.907,-12.183Z" style="fill:#fff;"/><path d="M190.176,137.158c0.048,-0.305 0.248,-0.523 0.479,-0.523c0.231,-0 0.431,0.218 0.479,0.523l1.906,12.183l9.038,2.57c0.226,0.064 0.388,0.333 0.388,0.645c0,0.312 -0.162,0.581 -0.388,0.645l-9.038,2.57l-1.906,12.183c-0.048,0.305 -0.248,0.523 -0.479,0.523c-0.231,0 -0.431,-0.218 -0.479,-0.523l-1.906,-12.183l-9.038,-2.57c-0.226,-0.064 -0.388,-0.333 -0.388,-0.645c-0,-0.312 0.162,-0.581 0.388,-0.645l9.038,-2.57l1.906,-12.183Z" style="fill:#fff;"/><path d="M389.285,161.767c0.048,-0.305 0.248,-0.523 0.479,-0.523c0.231,0 0.431,0.218 0.478,0.523l1.907,12.183l9.038,2.57c0.226,0.064 0.388,0.334 0.388,0.645c-0,0.312 -0.162,0.581 -0.388,0.646l-9.038,2.569l-1.907,12.183c-0.047,0.305 -0.247,0.524 -0.478,0.524c-0.231,-0 -0.431,-0.219 -0.479,-0.524l-1.906,-12.183l-9.038,-2.569c-0.226,-0.065 -0.388,-0.334 -0.388,-0.646c-0,-0.311 0.162,-0.581 0.388,-0.645l9.038,-2.57l1.906,-12.183Z" style="fill:#fff;"/><path d="M344.15,236.224c0.048,-0.305 0.248,-0.523 0.479,-0.523c0.231,-0 0.431,0.218 0.479,0.523l1.906,12.183l9.038,2.57c0.226,0.064 0.388,0.333 0.388,0.645c-0,0.312 -0.162,0.581 -0.388,0.645l-9.038,2.57l-1.906,12.183c-0.048,0.305 -0.248,0.523 -0.479,0.523c-0.231,0 -0.431,-0.218 -0.479,-0.523l-1.906,-12.183l-9.038,-2.57c-0.226,-0.064 -0.388,-0.333 -0.388,-0.645c-0,-0.312 0.162,-0.581 0.388,-0.645l9.038,-2.57l1.906,-12.183Z" style="fill:#fff;"/><path d="M365.663,307.61c0.048,-0.305 0.247,-0.523 0.479,-0.523c0.231,-0 0.431,0.218 0.478,0.523l1.907,12.183l9.037,2.57c0.227,0.064 0.389,0.333 0.389,0.645c-0,0.312 -0.162,0.581 -0.389,0.645l-9.037,2.57l-1.907,12.183c-0.047,0.305 -0.247,0.523 -0.478,0.523c-0.232,0 -0.431,-0.218 -0.479,-0.523l-1.906,-12.183l-9.038,-2.57c-0.226,-0.064 -0.388,-0.333 -0.388,-0.645c-0,-0.312 0.162,-0.581 0.388,-0.645l9.038,-2.57l1.906,-12.183Z" style="fill:#fff;"/><path d="M282.986,55.468c0.048,-0.305 0.247,-0.523 0.479,-0.523c0.231,-0 0.431,0.218 0.478,0.523l1.907,12.183l9.037,2.57c0.227,0.064 0.389,0.333 0.389,0.645c-0,0.312 -0.162,0.581 -0.389,0.645l-9.037,2.57l-1.907,12.183c-0.047,0.305 -0.247,0.523 -0.478,0.523c-0.232,0 -0.431,-0.218 -0.479,-0.523l-1.906,-12.183l-9.038,-2.57c-0.226,-0.064 -0.388,-0.333 -0.388,-0.645c-0,-0.312 0.162,-0.581 0.388,-0.645l9.038,-2.57l1.906,-12.183Z" style="fill:#fff;"/><path d="M94.009,268.067c0.048,-0.305 0.248,-0.524 0.479,-0.524c0.231,0 0.431,0.219 0.479,0.524l1.906,12.183l9.038,2.569c0.226,0.065 0.388,0.334 0.388,0.646c0,0.311 -0.162,0.581 -0.388,0.645l-9.038,2.57l-1.906,12.182c-0.048,0.306 -0.248,0.524 -0.479,0.524c-0.231,-0 -0.431,-0.218 -0.479,-0.524l-1.906,-12.182l-9.038,-2.57c-0.226,-0.064 -0.388,-0.334 -0.388,-0.645c0,-0.312 0.162,-0.581 0.388,-0.646l9.038,-2.569l1.906,-12.183Z" style="fill:#fff;"/><path d="M82.198,164.402c0.048,-0.306 0.248,-0.524 0.479,-0.524c0.231,0 0.431,0.218 0.479,0.524l1.906,12.182l9.038,2.57c0.226,0.064 0.388,0.334 0.388,0.645c0,0.312 -0.162,0.581 -0.388,0.646l-9.038,2.569l-1.906,12.183c-0.048,0.305 -0.248,0.524 -0.479,0.524c-0.231,-0 -0.431,-0.219 -0.479,-0.524l-1.906,-12.183l-9.038,-2.569c-0.226,-0.065 -0.388,-0.334 -0.388,-0.646c0,-0.311 0.162,-0.581 0.388,-0.645l9.038,-2.57l1.906,-12.182Z" style="fill:#fff;"/><path d="M129.443,126.334c0.047,-0.305 0.247,-0.523 0.478,-0.523c0.232,0 0.431,0.218 0.479,0.523l1.906,12.183l9.038,2.57c0.226,0.064 0.388,0.334 0.388,0.645c0,0.312 -0.162,0.581 -0.388,0.646l-9.038,2.569l-1.906,12.183c-0.048,0.305 -0.247,0.524 -0.479,0.524c-0.231,-0 -0.431,-0.219 -0.478,-0.524l-1.907,-12.183l-9.038,-2.569c-0.226,-0.065 -0.388,-0.334 -0.388,-0.646c0,-0.311 0.162,-0.581 0.388,-0.645l9.038,-2.57l1.907,-12.183Z" style="fill:#fff;"/></g></g></svg>