<?xml version="1.0" encoding="UTF-8" standalone="no"?><!DOCTYPE svg PUBLIC "-//W3C//DTD SVG 1.1//EN" "http://www.w3.org/Graphics/SVG/1.1/DTD/svg11.dtd"><svg width="100%" height="100%" viewBox="0 0 473 473" version="1.1" xmlns="http://www.w3.org/2000/svg" xmlns:xlink="http://www.w3.org/1999/xlink" xml:space="preserve" xmlns:serif="http://www.serif.com/" style="fill-rule:evenodd;clip-rule:evenodd;stroke-linejoin:round;stroke-miterlimit:2;"><ellipse cx="236.22" cy="236.22" rx="206.693" ry="206.964" style="fill:#173753;"/><clipPath id="_clip1"><ellipse cx="236.22" cy="236.22" rx="206.693" ry="206.964"/></clipPath><g clip-path="url(#_clip1)"><g><circle cx="236.212" cy="552.522" r="222.351" style="fill:#285680;"/><g><path d="M236.212,330.17c-30.9,0 -60.311,6.31 -87.047,17.696c-1.219,7.277 -7.299,19.705 -7.115,23.669c0.858,0.169 56.531,-56.738 49.622,-18.324c-4.454,24.727 -49.96,24.581 -48.005,49.477c47.814,18.746 64.49,-35.592 105.104,-35.37c13.548,0.077 48.242,-21.345 54.859,-16.983c26.805,17.658 -6.126,80.254 -26.636,59.422c-19.72,-19.72 -47.859,6.908 -46.594,37.662c10.251,0.46 14.629,-29.106 23.845,-19.245c10.152,10.864 6.487,32.739 -7.56,37.761c-14.138,5.053 -69.596,-37.493 -55.971,-5.244c14.982,35.791 -44.884,63.446 15.549,49.017c28.492,-6.832 19.023,14.851 32.463,25.194c16.01,12.291 8.925,-16.975 20.595,-12.52c16.983,6.571 -2.921,23.5 23.676,11.209c31.199,-14.23 19.475,7.959 29.029,22.465c17.911,27.081 61.928,53.073 84.999,17.282c5.436,-8.441 1.948,-75.193 36.19,-30.416c21.744,28.446 14.284,-33.605 17.228,-49.906c-26.022,-93.894 -112.049,-162.846 -214.231,-162.846Z" style="fill:#24ae5f;fill-rule:nonzero;"/></g><path d="M16.735,588.152c1.058,-0.092 1.196,-0.184 1.288,-0.276c9.945,-9.937 18.226,-11.601 26.514,-26.514c8.288,-14.913 -1.656,-14.913 -0,-39.77c1.656,-24.857 -1.656,-13.257 -0,-39.77c0.598,-9.538 -0.406,-14.783 -11.999,-18.532c-11.984,27.326 -18.678,57.489 -18.678,89.232c0,12.129 1.005,24.021 2.875,35.63Z" style="fill:#88c057;fill-rule:nonzero;"/><path d="M319.977,346.678c-1.488,28.062 -2.584,48.342 -2.584,48.342l-42.845,42.845c0,0 40.161,57.566 42.845,64.26c2.676,6.693 36.143,14.729 42.845,10.711c6.693,-4.018 32.133,-25.44 42.845,-10.711c7.452,10.251 6.494,19.199 11.079,25.493c3.159,0.046 7.107,2.17 12.03,7.131c6.962,2.085 14.897,4.133 21.967,5.842c2.346,-13.724 0.605,-38.206 2.292,-47.575c-18.478,-66.629 -67.242,-120.553 -130.474,-146.338Z" style="fill:#88c057;fill-rule:nonzero;"/><path d="M346.084,359.352c-1.396,26.483 -2.53,47.491 -2.53,47.491l-30.669,30.669c-0,0 28.752,41.212 30.669,46.004c1.917,4.792 25.877,10.543 30.669,7.667c4.792,-2.875 23.002,-18.209 30.669,-7.667c7.667,10.543 2.875,19.168 15.335,23.002c10.527,3.243 25.049,6.456 29.327,7.376c0.061,-8.526 0.084,-16.416 0.889,-20.878c-15.833,-57.137 -53.962,-104.919 -104.359,-133.664Z" style="fill:#fac176;fill-rule:nonzero;"/></g></g><path d="M236.22,0c130.374,0 236.221,105.847 236.221,236.22c-0,130.374 -105.847,236.221 -236.221,236.221c-130.373,-0 -236.22,-105.847 -236.22,-236.221c-0,-130.373 105.847,-236.22 236.22,-236.22Zm0,41.082c-107.699,-0 -195.138,87.439 -195.138,195.138c-0,107.7 87.439,195.139 195.138,195.139c107.7,0 195.139,-87.439 195.139,-195.139c0,-107.699 -87.439,-195.138 -195.139,-195.138Z"/><g transform="matrix(1,0,0,1,-29.7843,-29.7843)"><g transform="matrix(0.906798,-0.421565,0.421565,0.906798,-20.9282,78.5001)"><text x="167.07px" y="86.581px" style="font-family:'Helvetica-Bold', 'Helvetica';font-weight:700;font-size:37.5px;fill:#fff;">D</text></g><g transform="matrix(0.950567,-0.310519,0.310519,0.950567,-13.7232,63.5547)"><text x="192.752px" y="74.879px" style="font-family:'Helvetica-Bold', 'Helvetica';font-weight:700;font-size:37.5px;fill:#fff;">e</text></g><g transform="matrix(0.972627,-0.232372,0.232372,0.972627,-10.0527,51.4597)"><text x="213.396px" y="68.399px" style="font-family:'Helvetica-Bold', 'Helvetica';font-weight:700;font-size:37.5px;fill:#fff;">l</text></g><g transform="matrix(0.983685,-0.179899,0.179899,0.983685,-8.19773,41.3718)"><text x="223.997px" y="65.883px" style="font-family:'Helvetica-Bold', 'Helvetica';font-weight:700;font-size:37.5px;fill:#fff;">i</text></g><g transform="matrix(0.994949,-0.100379,0.100379,0.994949,-5.20786,23.9041)"><text x="234.933px" y="63.703px" style="font-family:'Helvetica-Bold', 'Helvetica';font-weight:700;font-size:37.5px;fill:#fff;">v</text></g><g transform="matrix(0.999989,0.00475693,-0.00475693,0.999989,0.295797,-1.22028)"><text x="256.674px" y="61.572px" style="font-family:'Helvetica-Bold', 'Helvetica';font-weight:700;font-size:37.5px;fill:#fff;">e</text></g><g transform="matrix(0.995028,0.0995931,-0.0995931,0.995028,7.54186,-27.4216)"><text x="278.423px" y="61.828px" style="font-family:'Helvetica-Bold', 'Helvetica';font-weight:700;font-size:37.5px;fill:#fff;">r</text></g><g transform="matrix(0.979419,0.201837,-0.201837,0.979419,18.7784,-58.0413)"><text x="293.996px" y="63.06px" style="font-family:'Helvetica-Bold', 'Helvetica';font-weight:700;font-size:37.5px;fill:#fff;">C</text></g><g transform="matrix(0.945654,0.325175,-0.325175,0.945654,39.9041,-100.839)"><text x="321.632px" y="68.962px" style="font-family:'Helvetica-Bold', 'Helvetica';font-weight:700;font-size:37.5px;fill:#fff;">o</text></g><g transform="matrix(0.900601,0.434647,-0.434647,0.900601,67.6162,-142.014)"><text x="344.304px" y="76.827px" style="font-family:'Helvetica-Bold', 'Helvetica';font-weight:700;font-size:37.5px;fill:#fff;">n</text></g></g><g transform="matrix(1,0,0,1,-29.7843,-59.0551)"><g transform="matrix(0.110587,0.993866,-0.993866,0.110587,343.212,232.186)"><text x="41.879px" y="307.852px" style="font-family:'Helvetica-Bold', 'Helvetica';font-weight:700;font-size:34.167px;fill:#fff;">U</text></g><g transform="matrix(0.225529,0.974236,-0.974236,0.225529,362.145,215.898)"><text x="45.279px" y="335.727px" style="font-family:'Helvetica-Bold', 'Helvetica';font-weight:700;font-size:34.167px;fill:#fff;">n</text></g><g transform="matrix(0.32481,0.945779,-0.945779,0.32481,373.86,194.27)"><text x="50.867px" y="358.979px" style="font-family:'Helvetica-Bold', 'Helvetica';font-weight:700;font-size:34.167px;fill:#fff;">c</text></g><g transform="matrix(0.419489,0.90776,-0.90776,0.419489,378.39,167.686)"><text x="58.088px" y="379.692px" style="font-family:'Helvetica-Bold', 'Helvetica';font-weight:700;font-size:34.167px;fill:#fff;">o</text></g><g transform="matrix(0.514602,0.857429,-0.857429,0.514602,377.349,136.272)"><text x="68.316px" y="401.42px" style="font-family:'Helvetica-Bold', 'Helvetica';font-weight:700;font-size:34.167px;fill:#fff;">n</text></g><g transform="matrix(0.583007,0.812467,-0.812467,0.583007,375.803,110.208)"><text x="80.537px" y="421.21px" style="font-family:'Helvetica-Bold', 'Helvetica';font-weight:700;font-size:34.167px;fill:#fff;">f</text></g><g transform="matrix(0.644022,0.765007,-0.765007,0.644022,362.201,86.2383)"><text x="88.436px" y="432.31px" style="font-family:'Helvetica-Bold', 'Helvetica';font-weight:700;font-size:34.167px;fill:#fff;">e</text></g><g transform="matrix(0.707896,0.706317,-0.706317,0.707896,346.815,58.6858)"><text x="102.455px" y="448.647px" style="font-family:'Helvetica-Bold', 'Helvetica';font-weight:700;font-size:34.167px;fill:#fff;">r</text></g><g transform="matrix(0.760426,0.649424,-0.649424,0.760426,325.677,36.4695)"><text x="113.409px" y="459.649px" style="font-family:'Helvetica-Bold', 'Helvetica';font-weight:700;font-size:34.167px;fill:#fff;">e</text></g><g transform="matrix(0.822819,0.568303,-0.568303,0.822819,292.359,9.96314)"><text x="130.201px" y="473.849px" style="font-family:'Helvetica-Bold', 'Helvetica';font-weight:700;font-size:34.167px;fill:#fff;">n</text></g><g transform="matrix(0.876612,0.481197,-0.481197,0.876612,252.976,-12.0443)"><text x="149.974px" y="487.266px" style="font-family:'Helvetica-Bold', 'Helvetica';font-weight:700;font-size:34.167px;fill:#fff;">c</text></g><g transform="matrix(0.918954,0.394366,-0.394366,0.918954,209.951,-26.3636)"><text x="169.117px" y="497.621px" style="font-family:'Helvetica-Bold', 'Helvetica';font-weight:700;font-size:34.167px;fill:#fff;">e</text></g><g transform="matrix(0.961675,0.27419,-0.27419,0.961675,147.278,-35.0793)"><text x="199.125px" y="509.306px" style="font-family:'Helvetica-Bold', 'Helvetica';font-weight:700;font-size:34.167px;fill:#fff;">f</text></g><g transform="matrix(0.981198,0.193002,-0.193002,0.981198,103.039,-31.3441)"><text x="212.395px" y="513.183px" style="font-family:'Helvetica-Bold', 'Helvetica';font-weight:700;font-size:34.167px;fill:#fff;">o</text></g><g transform="matrix(0.994789,0.101951,-0.101951,0.994789,53.9836,-21.3178)"><text x="235.546px" y="517.468px" style="font-family:'Helvetica-Bold', 'Helvetica';font-weight:700;font-size:34.167px;fill:#fff;">r</text></g><g transform="matrix(0.999143,-0.0413992,0.0413992,0.999143,-21.2921,11.3093)"><text x="262.414px" y="519.747px" style="font-family:'Helvetica-Bold', 'Helvetica';font-weight:700;font-size:34.167px;fill:#fff;">D</text></g><g transform="matrix(0.988913,-0.148496,0.148496,0.988913,-73.7494,48.8372)"><text x="290.181px" y="518.308px" style="font-family:'Helvetica-Bold', 'Helvetica';font-weight:700;font-size:34.167px;fill:#fff;">e</text></g><g transform="matrix(0.975283,-0.220958,0.220958,0.975283,-106.085,81.4592)"><text x="311.065px" y="514.909px" style="font-family:'Helvetica-Bold', 'Helvetica';font-weight:700;font-size:34.167px;fill:#fff;">l</text></g><g transform="matrix(0.96331,-0.268392,0.268392,0.96331,-125.739,105.139)"><text x="321.68px" y="512.467px" style="font-family:'Helvetica-Bold', 'Helvetica';font-weight:700;font-size:34.167px;fill:#fff;">i</text></g><g transform="matrix(0.940916,-0.338639,0.338639,0.940916,-152.845,142.836)"><text x="332.912px" y="509.435px" style="font-family:'Helvetica-Bold', 'Helvetica';font-weight:700;font-size:34.167px;fill:#fff;">v</text></g><g transform="matrix(0.903395,-0.428808,0.428808,0.903395,-181.071,200.044)"><text x="353.441px" y="501.89px" style="font-family:'Helvetica-Bold', 'Helvetica';font-weight:700;font-size:34.167px;fill:#fff;">e</text></g><g transform="matrix(0.862434,-0.50617,0.50617,0.862434,-197.984,256.456)"><text x="372.818px" y="492.465px" style="font-family:'Helvetica-Bold', 'Helvetica';font-weight:700;font-size:34.167px;fill:#fff;">r</text></g><g transform="matrix(0.820469,-0.571691,0.571691,0.820469,-207.72,307.823)"><text x="386.25px" y="484.639px" style="font-family:'Helvetica-Bold', 'Helvetica';font-weight:700;font-size:34.167px;fill:#fff;">y</text></g><g transform="matrix(0.711305,-0.702883,0.702883,0.711305,-207.396,424.66)"><text x="413.26px" y="464.803px" style="font-family:'Helvetica-Bold', 'Helvetica';font-weight:700;font-size:34.167px;fill:#fff;">M</text></g><g transform="matrix(0.62237,-0.782723,0.782723,0.62237,-181.518,507.887)"><text x="435.596px" y="442.061px" style="font-family:'Helvetica-Bold', 'Helvetica';font-weight:700;font-size:34.167px;fill:#fff;">a</text></g><g transform="matrix(0.539236,-0.842154,0.842154,0.539236,-150.72,574.028)"><text x="449.226px" y="424.752px" style="font-family:'Helvetica-Bold', 'Helvetica';font-weight:700;font-size:34.167px;fill:#fff;">n</text></g><g transform="matrix(0.450672,-0.892689,0.892689,0.450672,-107.416,634.589)"><text x="461.914px" y="404.573px" style="font-family:'Helvetica-Bold', 'Helvetica';font-weight:700;font-size:34.167px;fill:#fff;">a</text></g><g transform="matrix(0.359558,-0.933123,0.933123,0.359558,-57.1598,686.68)"><text x="471.666px" y="384.981px" style="font-family:'Helvetica-Bold', 'Helvetica';font-weight:700;font-size:34.167px;fill:#fff;">g</text></g><g transform="matrix(0.259575,-0.965723,0.965723,0.259575,5.26247,732.051)"><text x="480.032px" y="362.594px" style="font-family:'Helvetica-Bold', 'Helvetica';font-weight:700;font-size:34.167px;fill:#fff;">e</text></g><g transform="matrix(0.173717,-0.984796,0.984796,0.173717,64.5753,760.404)"><text x="485.427px" y="341.721px" style="font-family:'Helvetica-Bold', 'Helvetica';font-weight:700;font-size:34.167px;fill:#fff;">r</text></g><g transform="matrix(0.096055,-0.995376,0.995376,0.096055,116.444,780.938)"><text x="488.186px" y="326.358px" style="font-family:'Helvetica-Bold', 'Helvetica';font-weight:700;font-size:34.167px;fill:#fff;">s</text></g></g><g id="Layer1"><g><path d="M150.591,306.454c16.873,-16.873 18.56,-21.091 29.106,-10.546c10.545,10.546 6.327,11.811 -10.546,29.106c-12.654,12.654 -28.684,10.124 -28.684,10.124c0,-0 -2.531,-16.03 10.124,-28.684" style="fill:#ff9d27;fill-rule:nonzero;"/><path d="M182.65,323.748c6.749,-17.716 8.858,-19.825 -0.844,-25.309c-9.702,-5.484 -9.702,-1.687 -16.029,16.029c-5.062,13.077 0.843,24.888 0.843,24.888c0,-0 11.389,-2.109 16.03,-15.608" style="fill:#ff9d27;fill-rule:nonzero;"/></g><path d="M172.948,307.297c3.796,-9.702 3.796,-11.811 8.858,-8.858c5.484,2.953 4.218,4.218 0.422,13.92c-2.531,7.171 -8.859,8.858 -8.859,8.858c0,0 -2.952,-6.327 -0.421,-13.92" style="fill:#fdf516;fill-rule:nonzero;"/><path d="M176.744,293.799c-5.484,-9.702 -7.593,-7.593 -25.309,-0.844c-13.077,5.062 -15.608,16.03 -15.608,16.03c0,-0 11.811,5.905 24.888,0.843c17.716,-6.749 21.513,-6.749 16.029,-16.029" style="fill:#ff9d27;fill-rule:nonzero;"/><g><path d="M167.886,302.657c9.702,-3.796 11.811,-3.796 8.858,-8.858c-2.953,-5.484 -4.218,-4.218 -13.92,-0.422c-7.171,2.531 -8.858,8.858 -8.858,8.858c-0,0 6.749,2.953 13.92,0.422" style="fill:#fdf516;fill-rule:nonzero;"/><path d="M163.246,301.814c9.28,-9.28 10.123,-11.811 16.029,-5.906c5.905,5.906 3.375,6.749 -5.906,16.029c-7.171,7.171 -16.029,5.484 -16.029,5.484c0,0 -0.843,-8.436 5.906,-15.607" style="fill:#fdf516;fill-rule:nonzero;"/></g><path d="M182.65,261.319c-26.153,-43.87 -69.601,-25.731 -69.601,-25.731c0,-0 62.008,-62.008 103.768,-20.248l-34.167,45.979Z" style="fill:#3baacf;fill-rule:nonzero;"/><path d="M202.897,228.839l13.498,-13.499c-41.338,-41.76 -103.346,20.248 -103.346,20.248c0,-0 54.415,-38.808 89.848,-6.749" style="fill:#428bc1;fill-rule:nonzero;"/><path d="M214.286,292.955c43.87,26.153 25.731,69.601 25.731,69.601c0,-0 62.008,-62.008 20.248,-103.768l-45.979,34.167Z" style="fill:#3baacf;fill-rule:nonzero;"/><path d="M246.766,272.708l13.499,-13.498c41.76,41.76 -20.248,103.768 -20.248,103.768c0,-0 38.808,-54.837 6.749,-90.27" style="fill:#428bc1;fill-rule:nonzero;"/><path d="M310.461,231.37c-49.353,48.931 -103.768,75.506 -122.75,56.524c-18.982,-18.982 7.593,-73.397 56.524,-122.75c57.368,-57.368 121.063,-54.837 121.063,-54.837c0,-0 2.109,63.695 -54.837,121.063" style="fill:#c5d0d8;fill-rule:nonzero;"/><path d="M297.807,217.449c-48.932,48.932 -97.863,80.99 -109.252,69.601c-11.389,-11.389 20.669,-60.321 69.601,-109.252c57.367,-57.367 107.986,-68.335 107.986,-68.335c-0,0 -10.968,50.619 -68.335,107.986Z" style="fill:#dae3ea;fill-rule:nonzero;"/><path d="M207.115,301.392c-2.109,2.109 -5.484,2.109 -7.593,-0l-25.309,-25.309c-2.109,-2.11 -2.109,-5.906 0,-8.015l7.593,-7.593l32.902,32.902l-7.593,8.015" style="fill:#c94747;fill-rule:nonzero;"/><path d="M199.944,293.799c-2.109,2.109 -4.64,2.953 -5.905,1.687l-14.342,-14.342c-1.266,-1.265 -0.422,-3.796 1.687,-5.905l7.593,-7.593l18.56,18.56l-7.593,7.593" style="fill:#f15744;fill-rule:nonzero;"/><path d="M192.773,304.345c-1.265,1.265 -4.218,1.265 -5.483,-0l-16.451,-16.451c-1.266,-1.266 -0.844,-3.797 0.421,-5.062l5.062,-5.062l21.513,21.513l-5.062,5.062" style="fill:#3e4347;fill-rule:nonzero;"/><path d="M189.399,300.97c-1.266,1.265 -3.797,1.687 -4.64,0.844l-11.39,-11.39c-0.843,-0.843 -0.421,-2.952 1.266,-4.218l5.062,-5.062l14.764,14.764l-5.062,5.062" style="fill:#62727a;fill-rule:nonzero;"/><path d="M365.298,110.307c0,-0 -22.778,-0.844 -53.571,10.967l42.604,42.604c11.811,-30.793 10.967,-53.571 10.967,-53.571" style="fill:#c94747;fill-rule:nonzero;"/><path d="M365.298,110.307c0,-0 -18.138,3.796 -45.557,19.404l26.153,26.153c15.608,-27.419 19.404,-45.557 19.404,-45.557" style="fill:#f15744;fill-rule:nonzero;"/><circle cx="288.105" cy="187.5" r="21.091" style="fill:#edf4f9;"/><circle cx="288.105" cy="187.5" r="13.92" style="fill:#3baacf;"/><circle cx="245.923" cy="229.682" r="21.091" style="fill:#edf4f9;"/><circle cx="245.923" cy="229.682" r="13.92" style="fill:#3baacf;"/><g><path d="M310.883,130.132c-1.265,1.266 -3.796,1.266 -5.062,0c-1.265,-1.265 -1.265,-3.796 0,-5.061c1.266,-1.266 3.797,-1.266 5.062,-0c1.266,1.265 1.266,3.796 0,5.061" style="fill:#fff;fill-rule:nonzero;"/><circle cx="318.054" cy="137.303" r="3.375" style="fill:#fff;"/><circle cx="328.178" cy="147.427" r="3.375" style="fill:#fff;"/><circle cx="337.88" cy="157.551" r="3.375" style="fill:#fff;"/><circle cx="348.003" cy="167.253" r="3.375" style="fill:#fff;"/><path d="M153.065,67.279c0.047,-0.305 0.247,-0.523 0.478,-0.523c0.232,-0 0.431,0.218 0.479,0.523l1.906,12.183l9.038,2.57c0.226,0.064 0.388,0.333 0.388,0.645c0,0.312 -0.162,0.581 -0.388,0.645l-9.038,2.57l-1.906,12.183c-0.048,0.305 -0.247,0.523 -0.479,0.523c-0.231,0 -0.431,-0.218 -0.478,-0.523l-1.907,-12.183l-9.037,-2.57c-0.227,-0.064 -0.389,-0.333 -0.389,-0.645c0,-0.312 0.162,-0.581 0.389,-0.645l9.037,-2.57l1.907,-12.183Z" style="fill:#fff;"/><path d="M212.12,83.201c0.047,-0.306 0.247,-0.524 0.478,-0.524c0.232,0 0.431,0.218 0.479,0.524l1.906,12.182l9.038,2.57c0.226,0.064 0.388,0.334 0.388,0.645c0,0.312 -0.162,0.581 -0.388,0.646l-9.038,2.569l-1.906,12.183c-0.048,0.305 -0.247,0.524 -0.479,0.524c-0.231,-0 -0.431,-0.219 -0.478,-0.524l-1.907,-12.183l-9.037,-2.569c-0.227,-0.065 -0.389,-0.334 -0.389,-0.646c0,-0.311 0.162,-0.581 0.389,-0.645l9.037,-2.57l1.907,-12.182Z" style="fill:#fff;"/><path d="M389.285,161.767c0.048,-0.305 0.248,-0.523 0.479,-0.523c0.231,0 0.431,0.218 0.478,0.523l1.907,12.183l9.038,2.57c0.226,0.064 0.388,0.334 0.388,0.645c-0,0.312 -0.162,0.581 -0.388,0.646l-9.038,2.569l-1.907,12.183c-0.047,0.305 -0.247,0.524 -0.478,0.524c-0.231,-0 -0.431,-0.219 -0.479,-0.524l-1.906,-12.183l-9.038,-2.569c-0.226,-0.065 -0.388,-0.334 -0.388,-0.646c-0,-0.311 0.162,-0.581 0.388,-0.645l9.038,-2.57l1.906,-12.183Z" style="fill:#fff;"/><path d="M344.15,236.224c0.048,-0.305 0.248,-0.523 0.479,-0.523c0.231,-0 0.431,0.218 0.479,0.523l1.906,12.183l9.038,2.57c0.226,0.064 0.388,0.333 0.388,0.645c-0,0.312 -0.162,0.581 -0.388,0.645l-9.038,2.57l-1.906,12.183c-0.048,0.305 -0.248,0.523 -0.479,0.523c-0.231,0 -0.431,-0.218 -0.479,-0.523l-1.906,-12.183l-9.038,-2.57c-0.226,-0.064 -0.388,-0.333 -0.388,-0.645c-0,-0.312 0.162,-0.581 0.388,-0.645l9.038,-2.57l1.906,-12.183Z" style="fill:#fff;"/><path d="M365.663,307.61c0.048,-0.305 0.247,-0.523 0.479,-0.523c0.231,-0 0.431,0.218 0.478,0.523l1.907,12.183l9.037,2.57c0.227,0.064 0.389,0.333 0.389,0.645c-0,0.312 -0.162,0.581 -0.389,0.645l-9.037,2.57l-1.907,12.183c-0.047,0.305 -0.247,0.523 -0.478,0.523c-0.232,0 -0.431,-0.218 -0.479,-0.523l-1.906,-12.183l-9.038,-2.57c-0.226,-0.064 -0.388,-0.333 -0.388,-0.645c-0,-0.312 0.162,-0.581 0.388,-0.645l9.038,-2.57l1.906,-12.183Z" style="fill:#fff;"/><path d="M282.986,55.468c0.048,-0.305 0.247,-0.523 0.479,-0.523c0.231,-0 0.431,0.218 0.478,0.523l1.907,12.183l9.037,2.57c0.227,0.064 0.389,0.333 0.389,0.645c-0,0.312 -0.162,0.581 -0.389,0.645l-9.037,2.57l-1.907,12.183c-0.047,0.305 -0.247,0.523 -0.478,0.523c-0.232,0 -0.431,-0.218 -0.479,-0.523l-1.906,-12.183l-9.038,-2.57c-0.226,-0.064 -0.388,-0.333 -0.388,-0.645c-0,-0.312 0.162,-0.581 0.388,-0.645l9.038,-2.57l1.906,-12.183Z" style="fill:#fff;"/><path d="M94.009,268.067c0.048,-0.305 0.248,-0.524 0.479,-0.524c0.231,0 0.431,0.219 0.479,0.524l1.906,12.183l9.038,2.569c0.226,0.065 0.388,0.334 0.388,0.646c0,0.311 -0.162,0.581 -0.388,0.645l-9.038,2.57l-1.906,12.182c-0.048,0.306 -0.248,0.524 -0.479,0.524c-0.231,-0 -0.431,-0.218 -0.479,-0.524l-1.906,-12.182l-9.038,-2.57c-0.226,-0.064 -0.388,-0.334 -0.388,-0.645c0,-0.312 0.162,-0.581 0.388,-0.646l9.038,-2.569l1.906,-12.183Z" style="fill:#fff;"/><path d="M82.198,164.402c0.048,-0.306 0.248,-0.524 0.479,-0.524c0.231,0 0.431,0.218 0.479,0.524l1.906,12.182l9.038,2.57c0.226,0.064 0.388,0.334 0.388,0.645c0,0.312 -0.162,0.581 -0.388,0.646l-9.038,2.569l-1.906,12.183c-0.048,0.305 -0.248,0.524 -0.479,0.524c-0.231,-0 -0.431,-0.219 -0.479,-0.524l-1.906,-12.183l-9.038,-2.569c-0.226,-0.065 -0.388,-0.334 -0.388,-0.646c0,-0.311 0.162,-0.581 0.388,-0.645l9.038,-2.57l1.906,-12.182Z" style="fill:#fff;"/><path d="M129.443,126.334c0.047,-0.305 0.247,-0.523 0.478,-0.523c0.232,0 0.431,0.218 0.479,0.523l1.906,12.183l9.038,2.57c0.226,0.064 0.388,0.334 0.388,0.645c0,0.312 -0.162,0.581 -0.388,0.646l-9.038,2.569l-1.906,12.183c-0.048,0.305 -0.247,0.524 -0.479,0.524c-0.231,-0 -0.431,-0.219 -0.478,-0.524l-1.907,-12.183l-9.038,-2.569c-0.226,-0.065 -0.388,-0.334 -0.388,-0.646c0,-0.311 0.162,-0.581 0.388,-0.645l9.038,-2.57l1.907,-12.183Z" style="fill:#fff;"/></g></g></svg>