<?xml version="1.0" encoding="UTF-8" standalone="no"?><!DOCTYPE svg PUBLIC "-//W3C//DTD SVG 1.1//EN" "http://www.w3.org/Graphics/SVG/1.1/DTD/svg11.dtd"><svg width="100%" height="100%" viewBox="0 0 473 473" version="1.1" xmlns="http://www.w3.org/2000/svg" xmlns:xlink="http://www.w3.org/1999/xlink" xml:space="preserve" xmlns:serif="http://www.serif.com/" style="fill-rule:evenodd;clip-rule:evenodd;stroke-linejoin:round;stroke-miterlimit:2;"><ellipse cx="236.22" cy="236.22" rx="206.693" ry="206.964" style="fill:#173753;"/><clipPath id="_clip1"><ellipse cx="236.22" cy="236.22" rx="206.693" ry="206.964"/></clipPath><g clip-path="url(#_clip1)"><g><path d="M326.197,90.115l38.34,6.892l-2.757,15.336l-38.34,-6.892l2.757,-15.336Zm40.668,126.047c-0.379,2.104 -2.42,3.523 -4.524,3.145c0,0 -76.68,-13.784 -76.68,-13.784c-2.103,-0.378 -3.523,-2.42 -3.145,-4.523c0,-0 11.028,-61.344 11.028,-61.344c0.378,-2.103 2.42,-3.523 4.523,-3.145c-0,0 76.68,13.784 76.68,13.784c2.103,0.378 3.523,2.42 3.145,4.523l-11.027,61.344Z" style="fill:#ffb74d;fill-rule:nonzero;"/><path d="M352.907,205.738c-0.378,2.103 -2.42,3.523 -4.523,3.144l-46.008,-8.27c-2.104,-0.378 -3.523,-2.42 -3.145,-4.523l8.27,-46.008c0.378,-2.104 2.42,-3.523 4.524,-3.145l46.008,8.27c2.103,0.378 3.522,2.42 3.144,4.524c0,-0 -8.27,46.008 -8.27,46.008Zm-48.249,-83.874l69.012,12.406l-2.757,15.336l-69.012,-12.406l2.757,-15.336Zm-15.163,84.348l69.012,12.406l-24.673,137.257l-69.012,-12.405l24.673,-137.258Z" style="fill:#e89419;fill-rule:nonzero;"/><path d="M311.034,174.463c0,0 0,0 0,0c-1.89,10.517 5.208,20.726 15.724,22.616c10.516,1.891 20.726,-5.207 22.616,-15.724c0,0 0,0 0,0c1.891,-10.516 -5.208,-20.725 -15.724,-22.616c-10.516,-1.89 -20.725,5.208 -22.616,15.724Z" style="fill:#fff8e1;fill-rule:nonzero;"/><path d="M373.67,134.27l-11.89,-21.927l-38.34,-6.892l-18.782,16.413l69.012,12.406Zm-47.473,-44.155l25.372,-31.06l12.968,37.952l-38.34,-6.892Z" style="fill:#7986cb;fill-rule:nonzero;"/><path d="M328.438,165.718l7.668,1.378l-2.757,15.336l-7.668,-1.378l2.757,-15.336Z" style="fill:#455a64;fill-rule:nonzero;"/><path d="M327.059,173.386l15.336,2.757l-1.378,7.668l-15.336,-2.757l1.378,-7.668Z" style="fill:#455a64;fill-rule:nonzero;"/><path d="M317.237,139.957l1.378,-7.668c0.378,-2.103 -1.041,-4.145 -3.144,-4.523c-2.104,-0.378 -4.146,1.041 -4.524,3.145l-1.378,7.668l7.668,1.378Zm15.336,2.757l1.378,-7.668c0.378,-2.103 -1.041,-4.145 -3.144,-4.523c-2.104,-0.378 -4.146,1.041 -4.524,3.145l-1.378,7.668l7.668,1.378Zm15.336,2.757l1.378,-7.668c0.378,-2.103 -1.041,-4.145 -3.144,-4.523c-2.104,-0.379 -4.146,1.041 -4.524,3.144l-1.378,7.668l7.668,1.379Zm15.336,2.757l1.378,-7.668c0.378,-2.104 -1.041,-4.146 -3.144,-4.524c-2.104,-0.378 -4.146,1.042 -4.524,3.145c0,0 -1.378,7.668 -1.378,7.668l7.668,1.379Zm-24.469,-40.02l1.378,-7.668c0.378,-2.103 -1.041,-4.145 -3.145,-4.523c-2.103,-0.378 -4.145,1.041 -4.523,3.145l-1.378,7.668l7.668,1.378Zm15.336,2.757l1.378,-7.668c0.378,-2.104 -1.041,-4.145 -3.145,-4.523c-2.103,-0.379 -4.145,1.041 -4.523,3.144l-1.378,7.668l7.668,1.379Zm-71.533,226.198l20.874,-120.526c0.378,-2.103 -1.042,-4.145 -3.145,-4.523c-2.103,-0.378 -4.145,1.042 -4.523,3.145l-21.641,120.388c-0,-0 -0.827,4.6 3.007,5.29c4.601,0.827 5.428,-3.774 5.428,-3.774Zm14.569,2.619l21.641,-120.388c0.378,-2.103 -1.042,-4.145 -3.145,-4.523c-2.103,-0.378 -4.145,1.041 -4.523,3.145l-21.641,120.387c-0,0 -0.827,4.601 3.007,5.29c3.834,0.69 4.661,-3.911 4.661,-3.911Zm15.336,2.757l21.641,-120.388c0.378,-2.103 -1.042,-4.145 -3.145,-4.523c-2.103,-0.378 -4.145,1.041 -4.523,3.144l-21.641,120.388c-0,0 -0.827,4.601 3.007,5.29c3.834,0.689 4.661,-3.911 4.661,-3.911Zm15.336,2.756l21.641,-120.387c0.378,-2.104 -1.042,-4.145 -3.145,-4.524c-2.103,-0.378 -4.145,1.042 -4.523,3.145c-0,0 -21.641,120.388 -21.641,120.388c-0,-0 -0.827,4.601 3.007,5.29c3.834,0.689 4.661,-3.912 4.661,-3.912Z" style="fill:#805a26;fill-rule:nonzero;"/></g><g><circle cx="236.212" cy="552.522" r="222.351" style="fill:#285680;"/><g><path d="M236.212,330.17c-30.9,0 -60.311,6.31 -87.047,17.696c-1.219,7.277 -7.299,19.705 -7.115,23.669c0.858,0.169 56.531,-56.738 49.622,-18.324c-4.454,24.727 -49.96,24.581 -48.005,49.477c47.814,18.746 64.49,-35.592 105.104,-35.37c13.548,0.077 48.242,-21.345 54.859,-16.983c26.805,17.658 -6.126,80.254 -26.636,59.422c-19.72,-19.72 -47.859,6.908 -46.594,37.662c10.251,0.46 14.629,-29.106 23.845,-19.245c10.152,10.864 6.487,32.739 -7.56,37.761c-14.138,5.053 -69.596,-37.493 -55.971,-5.244c14.982,35.791 -44.884,63.446 15.549,49.017c28.492,-6.832 19.023,14.851 32.463,25.194c16.01,12.291 8.925,-16.975 20.595,-12.52c16.983,6.571 -2.921,23.5 23.676,11.209c31.199,-14.23 19.475,7.959 29.029,22.465c17.911,27.081 61.928,53.073 84.999,17.282c5.436,-8.441 1.948,-75.193 36.19,-30.416c21.744,28.446 14.284,-33.605 17.228,-49.906c-26.022,-93.894 -112.049,-162.846 -214.231,-162.846Z" style="fill:#24ae5f;fill-rule:nonzero;"/></g><path d="M16.735,588.152c1.058,-0.092 1.196,-0.184 1.288,-0.276c9.945,-9.937 18.226,-11.601 26.514,-26.514c8.288,-14.913 -1.656,-14.913 -0,-39.77c1.656,-24.857 -1.656,-13.257 -0,-39.77c0.598,-9.538 -0.406,-14.783 -11.999,-18.532c-11.984,27.326 -18.678,57.489 -18.678,89.232c0,12.129 1.005,24.021 2.875,35.63Z" style="fill:#88c057;fill-rule:nonzero;"/><path d="M319.977,346.678c-1.488,28.062 -2.584,48.342 -2.584,48.342l-42.845,42.845c0,0 40.161,57.566 42.845,64.26c2.676,6.693 36.143,14.729 42.845,10.711c6.693,-4.018 32.133,-25.44 42.845,-10.711c7.452,10.251 6.494,19.199 11.079,25.493c3.159,0.046 7.107,2.17 12.03,7.131c6.962,2.085 14.897,4.133 21.967,5.842c2.346,-13.724 0.605,-38.206 2.292,-47.575c-18.478,-66.629 -67.242,-120.553 -130.474,-146.338Z" style="fill:#88c057;fill-rule:nonzero;"/><path d="M346.084,359.352c-1.396,26.483 -2.53,47.491 -2.53,47.491l-30.669,30.669c-0,0 28.752,41.212 30.669,46.004c1.917,4.792 25.877,10.543 30.669,7.667c4.792,-2.875 23.002,-18.209 30.669,-7.667c7.667,10.543 2.875,19.168 15.335,23.002c10.527,3.243 25.049,6.456 29.327,7.376c0.061,-8.526 0.084,-16.416 0.889,-20.878c-15.833,-57.137 -53.962,-104.919 -104.359,-133.664Z" style="fill:#fac176;fill-rule:nonzero;"/></g></g><path d="M236.22,0c130.374,0 236.221,105.847 236.221,236.22c-0,130.374 -105.847,236.221 -236.221,236.221c-130.373,-0 -236.22,-105.847 -236.22,-236.221c-0,-130.373 105.847,-236.22 236.22,-236.22Zm0,41.082c-107.699,-0 -195.138,87.439 -195.138,195.138c-0,107.7 87.439,195.139 195.138,195.139c107.7,0 195.139,-87.439 195.139,-195.139c0,-107.699 -87.439,-195.138 -195.139,-195.138Z"/><g transform="matrix(1,0,0,1,-29.7843,-29.7843)"><g transform="matrix(0.728357,-0.685198,0.685198,0.728357,-55.5537,113.7)"><text x="115.623px" y="126.915px" style="font-family:'Helvetica-Bold', 'Helvetica';font-weight:700;font-size:37.5px;fill:#fff;">D</text></g><g transform="matrix(0.803873,-0.594801,0.594801,0.803873,-37.3543,102.208)"><text x="136.308px" y="107.747px" style="font-family:'Helvetica-Bold', 'Helvetica';font-weight:700;font-size:37.5px;fill:#fff;">e</text></g><g transform="matrix(0.848783,-0.528741,0.528741,0.848783,-27.0455,95.6891)"><text x="153.769px" y="95.128px" style="font-family:'Helvetica-Bold', 'Helvetica';font-weight:700;font-size:37.5px;fill:#fff;">l</text></g><g transform="matrix(0.875883,-0.482524,0.482524,0.875883,-22.8737,89.7775)"><text x="163.075px" y="89.351px" style="font-family:'Helvetica-Bold', 'Helvetica';font-weight:700;font-size:37.5px;fill:#fff;">i</text></g><g transform="matrix(0.911878,-0.410462,0.410462,0.911878,-19.1723,78.304)"><text x="172.779px" y="83.803px" style="font-family:'Helvetica-Bold', 'Helvetica';font-weight:700;font-size:37.5px;fill:#fff;">v</text></g><g transform="matrix(0.950567,-0.310519,0.310519,0.950567,-13.7232,63.5547)"><text x="192.752px" y="74.879px" style="font-family:'Helvetica-Bold', 'Helvetica';font-weight:700;font-size:37.5px;fill:#fff;">e</text></g><g transform="matrix(0.976055,-0.217525,0.217525,0.976055,-9.7425,48.0643)"><text x="213.443px" y="68.284px" style="font-family:'Helvetica-Bold', 'Helvetica';font-weight:700;font-size:37.5px;fill:#fff;">r</text></g><g transform="matrix(0.993332,-0.115293,0.115293,0.993332,-5.91942,26.7913)"><text x="228.643px" y="64.567px" style="font-family:'Helvetica-Bold', 'Helvetica';font-weight:700;font-size:37.5px;fill:#fff;">C</text></g><g transform="matrix(0.999947,0.0103062,-0.0103062,0.999947,0.64759,-2.64276)"><text x="256.742px" y="61.512px" style="font-family:'Helvetica-Bold', 'Helvetica';font-weight:700;font-size:37.5px;fill:#fff;">o</text></g><g transform="matrix(0.991948,0.126646,-0.126646,0.991948,10.0888,-35.05)"><text x="280.685px" y="61.816px" style="font-family:'Helvetica-Bold', 'Helvetica';font-weight:700;font-size:37.5px;fill:#fff;">n</text></g><g transform="matrix(0.957526,0.288346,-0.288346,0.957526,32.7914,-88.0062)"><text x="315.124px" y="67.304px" style="font-family:'Helvetica-Bold', 'Helvetica';font-weight:700;font-size:37.5px;fill:#fff;">2</text></g><g transform="matrix(0.920755,0.390141,-0.390141,0.920755,55.3861,-125.286)"><text x="336.099px" y="73.696px" style="font-family:'Helvetica-Bold', 'Helvetica';font-weight:700;font-size:37.5px;fill:#fff;">0</text></g><g transform="matrix(0.873868,0.486164,-0.486164,0.873868,84.9322,-162.79)"><text x="356.195px" y="82.286px" style="font-family:'Helvetica-Bold', 'Helvetica';font-weight:700;font-size:37.5px;fill:#fff;">2</text></g><g transform="matrix(0.817027,0.576599,-0.576599,0.817027,122.268,-199.361)"><text x="375.255px" y="92.97px" style="font-family:'Helvetica-Bold', 'Helvetica';font-weight:700;font-size:37.5px;fill:#fff;">4</text></g><g transform="matrix(0.768358,0.64002,-0.64002,0.768358,158.586,-226.909)"><text x="392.764px" y="105.63px" style="font-family:'Helvetica-Bold', 'Helvetica';font-weight:700;font-size:37.5px;fill:#fff;">.</text></g><g transform="matrix(0.715478,0.698635,-0.698635,0.715478,192.888,-248.4)"><text x="401.414px" y="112.616px" style="font-family:'Helvetica-Bold', 'Helvetica';font-weight:700;font-size:37.5px;fill:#fff;">2</text></g></g><g transform="matrix(1,0,0,1,-29.7843,-59.0551)"><g transform="matrix(0.310519,0.950567,-0.950567,0.310519,368.46,199.97)"><text x="46.383px" y="353.978px" style="font-family:'Helvetica-Bold', 'Helvetica';font-weight:700;font-size:37.5px;fill:#fff;">L</text></g><g transform="matrix(0.416023,0.909354,-0.909354,0.416023,376.774,171.609)"><text x="54.774px" y="379.156px" style="font-family:'Helvetica-Bold', 'Helvetica';font-weight:700;font-size:37.5px;fill:#fff;">o</text></g><g transform="matrix(0.520085,0.854115,-0.854115,0.520085,376.149,137.123)"><text x="66.055px" y="403.282px" style="font-family:'Helvetica-Bold', 'Helvetica';font-weight:700;font-size:37.5px;fill:#fff;">n</text></g><g transform="matrix(0.613858,0.789417,-0.789417,0.613858,367.103,101.222)"><text x="80.084px" y="425.858px" style="font-family:'Helvetica-Bold', 'Helvetica';font-weight:700;font-size:37.5px;fill:#fff;">d</text></g><g transform="matrix(0.703413,0.710782,-0.710782,0.703413,346.238,63.7856)"><text x="96.687px" y="446.778px" style="font-family:'Helvetica-Bold', 'Helvetica';font-weight:700;font-size:37.5px;fill:#fff;">o</text></g><g transform="matrix(0.781561,0.623829,-0.623829,0.781561,315.673,29.5963)"><text x="115.575px" y="465.555px" style="font-family:'Helvetica-Bold', 'Helvetica';font-weight:700;font-size:37.5px;fill:#fff;">n</text></g><g transform="matrix(0.862434,0.50617,-0.50617,0.862434,267.123,-6.7945)"><text x="146.062px" y="488.038px" style="font-family:'Helvetica-Bold', 'Helvetica';font-weight:700;font-size:37.5px;fill:#fff;">-</text></g><g transform="matrix(0.924449,0.381306,-0.381306,0.924449,203.962,-26.9586)"><text x="170.011px" y="501.218px" style="font-family:'Helvetica-Bold', 'Helvetica';font-weight:700;font-size:37.5px;fill:#fff;">7</text></g><g transform="matrix(0.953527,0.301308,-0.301308,0.953527,162.564,-34.1321)"><text x="191.929px" y="509.925px" style="font-family:'Helvetica-Bold', 'Helvetica';font-weight:700;font-size:37.5px;fill:#fff;">t</text></g><g transform="matrix(0.977314,0.211795,-0.211795,0.977314,113.689,-32.0803)"><text x="206.595px" y="514.658px" style="font-family:'Helvetica-Bold', 'Helvetica';font-weight:700;font-size:37.5px;fill:#fff;">h</text></g><g transform="matrix(0.99951,0.0313045,-0.0313045,0.99951,16.4513,-7.41653)"><text x="245.083px" y="521.689px" style="font-family:'Helvetica-Bold', 'Helvetica';font-weight:700;font-size:37.5px;fill:#fff;">N</text></g><g transform="matrix(0.995564,-0.0940886,0.0940886,0.995564,-47.9163,28.3039)"><text x="276.197px" y="522.291px" style="font-family:'Helvetica-Bold', 'Helvetica';font-weight:700;font-size:37.5px;fill:#fff;">o</text></g><g transform="matrix(0.978702,-0.205287,0.205287,0.978702,-100.211,73.1743)"><text x="302.547px" y="519.538px" style="font-family:'Helvetica-Bold', 'Helvetica';font-weight:700;font-size:37.5px;fill:#fff;">v</text></g><g transform="matrix(0.951046,-0.309048,0.309048,0.951046,-142.987,126.025)"><text x="326.308px" y="514.357px" style="font-family:'Helvetica-Bold', 'Helvetica';font-weight:700;font-size:37.5px;fill:#fff;">e</text></g><g transform="matrix(0.898607,-0.438755,0.438755,0.898607,-186.76,205.121)"><text x="350.426px" y="506.641px" style="font-family:'Helvetica-Bold', 'Helvetica';font-weight:700;font-size:37.5px;fill:#fff;">m</text></g><g transform="matrix(0.824732,-0.565524,0.565524,0.824732,-209.358,303.105)"><text x="384.324px" y="489.311px" style="font-family:'Helvetica-Bold', 'Helvetica';font-weight:700;font-size:37.5px;fill:#fff;">b</text></g><g transform="matrix(0.758729,-0.651406,0.651406,0.758729,-210.99,378.832)"><text x="405.909px" y="474.242px" style="font-family:'Helvetica-Bold', 'Helvetica';font-weight:700;font-size:37.5px;fill:#fff;">e</text></g><g transform="matrix(0.693289,-0.72066,0.72066,0.693289,-200.387,446.095)"><text x="423.887px" y="458.466px" style="font-family:'Helvetica-Bold', 'Helvetica';font-weight:700;font-size:37.5px;fill:#fff;">r</text></g><g transform="matrix(0.587559,-0.809181,0.809181,0.587559,-170.404,539.188)"><text x="443.723px" y="436.755px" style="font-family:'Helvetica-Bold', 'Helvetica';font-weight:700;font-size:37.5px;fill:#fff;">2</text></g><g transform="matrix(0.497681,-0.86736,0.86736,0.497681,-131.686,606.568)"><text x="457.841px" y="416.975px" style="font-family:'Helvetica-Bold', 'Helvetica';font-weight:700;font-size:37.5px;fill:#fff;">0</text></g><g transform="matrix(0.402434,-0.915449,0.915449,0.402434,-81.6862,666.569)"><text x="469.736px" y="395.855px" style="font-family:'Helvetica-Bold', 'Helvetica';font-weight:700;font-size:37.5px;fill:#fff;">2</text></g><g transform="matrix(0.301677,-0.95341,0.95341,0.301677,-21.4281,717.851)"><text x="479.322px" y="373.553px" style="font-family:'Helvetica-Bold', 'Helvetica';font-weight:700;font-size:37.5px;fill:#fff;">4</text></g></g><g id="Layer1"><g><path d="M79.725,297.807c16.873,-16.873 18.56,-21.091 29.106,-10.546c10.545,10.546 6.327,11.811 -10.546,29.106c-12.655,12.654 -28.684,10.124 -28.684,10.124c0,-0 -2.531,-16.03 10.124,-28.684" style="fill:#ff9d27;fill-rule:nonzero;"/><path d="M111.783,315.101c6.75,-17.716 8.859,-19.825 -0.843,-25.309c-9.702,-5.484 -9.702,-1.687 -16.029,16.029c-5.062,13.077 0.843,24.888 0.843,24.888c0,-0 11.389,-2.109 16.029,-15.608" style="fill:#ff9d27;fill-rule:nonzero;"/></g><path d="M102.081,298.65c3.797,-9.702 3.797,-11.811 8.859,-8.858c5.483,2.953 4.218,4.218 0.422,13.92c-2.531,7.171 -8.859,8.858 -8.859,8.858c0,0 -2.952,-6.327 -0.422,-13.92" style="fill:#fdf516;fill-rule:nonzero;"/><path d="M105.878,285.152c-5.484,-9.702 -7.593,-7.593 -25.309,-0.844c-13.077,5.062 -15.608,16.03 -15.608,16.03c0,-0 11.811,5.905 24.888,0.843c17.716,-6.749 21.513,-6.749 16.029,-16.029" style="fill:#ff9d27;fill-rule:nonzero;"/><g><path d="M97.02,294.01c9.702,-3.796 11.811,-3.796 8.858,-8.858c-2.953,-5.484 -4.218,-4.218 -13.92,-0.422c-7.171,2.531 -8.858,8.858 -8.858,8.858c-0,0 6.749,2.953 13.92,0.422" style="fill:#fdf516;fill-rule:nonzero;"/><path d="M92.38,293.167c9.28,-9.28 10.123,-11.811 16.029,-5.906c5.905,5.906 3.374,6.749 -5.906,16.029c-7.171,7.171 -16.029,5.484 -16.029,5.484c0,0 -0.844,-8.436 5.906,-15.607" style="fill:#fdf516;fill-rule:nonzero;"/></g><path d="M111.783,252.672c-26.153,-43.87 -69.6,-25.731 -69.6,-25.731c-0,-0 62.008,-62.008 103.768,-20.248l-34.168,45.979Z" style="fill:#3baacf;fill-rule:nonzero;"/><path d="M132.031,220.192l13.498,-13.499c-41.338,-41.76 -103.346,20.248 -103.346,20.248c-0,-0 54.415,-38.808 89.848,-6.749" style="fill:#428bc1;fill-rule:nonzero;"/><path d="M143.42,284.308c43.869,26.153 25.731,69.601 25.731,69.601c0,-0 62.008,-62.008 20.247,-103.768l-45.978,34.167Z" style="fill:#3baacf;fill-rule:nonzero;"/><path d="M175.9,264.061l13.498,-13.498c41.761,41.76 -20.247,103.768 -20.247,103.768c0,-0 38.808,-54.837 6.749,-90.27" style="fill:#428bc1;fill-rule:nonzero;"/><path d="M239.595,222.722c-49.353,48.932 -103.768,75.506 -122.75,56.525c-18.982,-18.982 7.593,-73.397 56.524,-122.75c57.368,-57.368 121.063,-54.837 121.063,-54.837c-0,-0 2.109,63.695 -54.837,121.062" style="fill:#c5d0d8;fill-rule:nonzero;"/><path d="M226.941,208.802c-48.932,48.932 -97.863,80.99 -109.252,69.601c-11.389,-11.389 20.669,-60.321 69.6,-109.252c57.368,-57.367 107.987,-68.335 107.987,-68.335c-0,0 -10.968,50.619 -68.335,107.986Z" style="fill:#dae3ea;fill-rule:nonzero;"/><path d="M136.249,292.745c-2.109,2.109 -5.484,2.109 -7.593,-0l-25.309,-25.309c-2.109,-2.11 -2.109,-5.906 -0,-8.015l7.593,-7.593l32.902,32.902l-7.593,8.015" style="fill:#c94747;fill-rule:nonzero;"/><path d="M129.078,285.152c-2.109,2.109 -4.64,2.953 -5.905,1.687l-14.342,-14.342c-1.266,-1.265 -0.422,-3.796 1.687,-5.905l7.593,-7.593l18.56,18.56l-7.593,7.593" style="fill:#f15744;fill-rule:nonzero;"/><path d="M121.907,295.698c-1.265,1.265 -4.218,1.265 -5.484,-0l-16.451,-16.451c-1.265,-1.266 -0.843,-3.797 0.422,-5.062l5.062,-5.062l21.513,21.513l-5.062,5.062" style="fill:#3e4347;fill-rule:nonzero;"/><path d="M118.533,292.323c-1.266,1.265 -3.797,1.687 -4.641,0.844l-11.389,-11.39c-0.843,-0.843 -0.422,-2.952 1.266,-4.218l5.062,-5.062l14.763,14.764l-5.061,5.062" style="fill:#62727a;fill-rule:nonzero;"/><path d="M294.432,101.66c-0,-0 -22.778,-0.844 -53.571,10.967l42.604,42.604c11.811,-30.793 10.967,-53.571 10.967,-53.571" style="fill:#c94747;fill-rule:nonzero;"/><path d="M294.432,101.66c-0,-0 -18.138,3.796 -45.557,19.404l26.153,26.153c15.608,-27.419 19.404,-45.557 19.404,-45.557" style="fill:#f15744;fill-rule:nonzero;"/><circle cx="217.239" cy="178.853" r="21.091" style="fill:#edf4f9;"/><circle cx="217.239" cy="178.853" r="13.92" style="fill:#3baacf;"/><circle cx="175.057" cy="221.035" r="21.091" style="fill:#edf4f9;"/><circle cx="175.057" cy="221.035" r="13.92" style="fill:#3baacf;"/></g><g><path d="M141.254,71.39c0.047,-0.306 0.247,-0.524 0.478,-0.524c0.232,0 0.431,0.218 0.479,0.524l1.906,12.182l9.038,2.57c0.226,0.064 0.388,0.334 0.388,0.645c0,0.312 -0.162,0.581 -0.388,0.646l-9.038,2.569l-1.906,12.183c-0.048,0.305 -0.247,0.524 -0.479,0.524c-0.231,-0 -0.431,-0.219 -0.478,-0.524l-1.907,-12.183l-9.037,-2.569c-0.227,-0.065 -0.389,-0.334 -0.389,-0.646c0,-0.311 0.162,-0.581 0.389,-0.645l9.037,-2.57l1.907,-12.182Z" style="fill:#fff;"/><path d="M200.309,79.301c0.047,-0.305 0.247,-0.523 0.478,-0.523c0.232,0 0.431,0.218 0.479,0.523l1.906,12.183l9.038,2.57c0.226,0.064 0.388,0.334 0.388,0.645c0,0.312 -0.162,0.581 -0.388,0.646l-9.038,2.569l-1.906,12.183c-0.048,0.305 -0.247,0.524 -0.479,0.524c-0.231,-0 -0.431,-0.219 -0.478,-0.524l-1.907,-12.183l-9.037,-2.569c-0.227,-0.065 -0.389,-0.334 -0.389,-0.646c0,-0.311 0.162,-0.581 0.389,-0.645l9.037,-2.57l1.907,-12.183Z" style="fill:#fff;"/><path d="M235.742,268.067c0.048,-0.305 0.247,-0.524 0.478,-0.524c0.232,0 0.431,0.219 0.479,0.524l1.907,12.183l9.037,2.569c0.227,0.065 0.388,0.334 0.388,0.646c0,0.311 -0.161,0.581 -0.388,0.645l-9.037,2.57l-1.907,12.182c-0.048,0.306 -0.247,0.524 -0.479,0.524c-0.231,-0 -0.43,-0.218 -0.478,-0.524l-1.907,-12.182l-9.037,-2.57c-0.227,-0.064 -0.389,-0.334 -0.389,-0.645c0,-0.312 0.162,-0.581 0.389,-0.646l9.037,-2.569l1.907,-12.183Z" style="fill:#fff;"/><path d="M401.096,244.445c0.048,-0.305 0.248,-0.524 0.479,-0.524c0.231,0 0.431,0.219 0.478,0.524l1.907,12.182l9.038,2.57c0.226,0.065 0.388,0.334 0.388,0.646c-0,0.311 -0.162,0.58 -0.388,0.645l-9.038,2.57l-1.907,12.182c-0.047,0.305 -0.247,0.524 -0.478,0.524c-0.231,-0 -0.431,-0.219 -0.479,-0.524l-1.906,-12.182l-9.038,-2.57c-0.226,-0.065 -0.388,-0.334 -0.388,-0.645c-0,-0.312 0.162,-0.581 0.388,-0.646l9.038,-2.57l1.906,-12.182Z" style="fill:#fff;"/><path d="M353.852,303.711c0.048,-0.305 0.247,-0.523 0.479,-0.523c0.231,-0 0.431,0.218 0.478,0.523l1.907,12.183l9.037,2.57c0.227,0.064 0.389,0.333 0.389,0.645c-0,0.312 -0.162,0.581 -0.389,0.645l-9.037,2.57l-1.907,12.183c-0.047,0.305 -0.247,0.523 -0.478,0.523c-0.232,0 -0.431,-0.218 -0.479,-0.523l-1.906,-12.183l-9.038,-2.57c-0.226,-0.064 -0.388,-0.333 -0.388,-0.645c-0,-0.312 0.162,-0.581 0.388,-0.645l9.038,-2.57l1.906,-12.183Z" style="fill:#fff;"/><path d="M271.175,51.569c0.048,-0.305 0.247,-0.523 0.479,-0.523c0.231,-0 0.431,0.218 0.478,0.523l1.907,12.183l9.037,2.57c0.227,0.064 0.389,0.333 0.389,0.645c-0,0.312 -0.162,0.581 -0.389,0.645l-9.037,2.57l-1.907,12.183c-0.047,0.305 -0.247,0.523 -0.478,0.523c-0.232,0 -0.431,-0.218 -0.479,-0.523l-1.906,-12.183l-9.038,-2.57c-0.227,-0.064 -0.388,-0.333 -0.388,-0.645c-0,-0.312 0.161,-0.581 0.388,-0.645l9.038,-2.57l1.906,-12.183Z" style="fill:#fff;"/><path d="M58.576,252.145c0.048,-0.305 0.248,-0.523 0.479,-0.523c0.231,0 0.431,0.218 0.479,0.523l1.906,12.183l9.038,2.57c0.226,0.064 0.388,0.334 0.388,0.645c0,0.312 -0.162,0.581 -0.388,0.646l-9.038,2.569l-1.906,12.183c-0.048,0.305 -0.248,0.524 -0.479,0.524c-0.231,-0 -0.431,-0.219 -0.479,-0.524l-1.906,-12.183l-9.038,-2.569c-0.226,-0.065 -0.388,-0.334 -0.388,-0.646c0,-0.311 0.162,-0.581 0.388,-0.645l9.038,-2.57l1.906,-12.183Z" style="fill:#fff;"/><path d="M70.387,160.502c0.048,-0.305 0.248,-0.523 0.479,-0.523c0.231,0 0.431,0.218 0.479,0.523l1.906,12.183l9.038,2.57c0.226,0.064 0.388,0.334 0.388,0.645c0,0.312 -0.162,0.581 -0.388,0.646l-9.038,2.569l-1.906,12.183c-0.048,0.305 -0.248,0.524 -0.479,0.524c-0.231,-0 -0.431,-0.219 -0.479,-0.524l-1.906,-12.183l-9.038,-2.569c-0.226,-0.065 -0.388,-0.334 -0.388,-0.646c0,-0.311 0.162,-0.581 0.388,-0.645l9.038,-2.57l1.906,-12.183Z" style="fill:#fff;"/><path d="M117.632,122.435c0.047,-0.305 0.247,-0.523 0.478,-0.523c0.232,-0 0.431,0.218 0.479,0.523l1.906,12.183l9.038,2.57c0.226,0.064 0.388,0.333 0.388,0.645c0,0.312 -0.162,0.581 -0.388,0.646l-9.038,2.569l-1.906,12.183c-0.048,0.305 -0.247,0.523 -0.479,0.523c-0.231,0 -0.431,-0.218 -0.478,-0.523l-1.907,-12.183l-9.038,-2.569c-0.226,-0.065 -0.388,-0.334 -0.388,-0.646c0,-0.312 0.162,-0.581 0.388,-0.645l9.038,-2.57l1.907,-12.183Z" style="fill:#fff;"/></g></svg>